<mxfile host="app.diagrams.net" agent="Mozilla/5.0 (Windows NT 10.0; Win64; x64) AppleWebKit/537.36 (KHTML, like Gecko) Chrome/137.0.0.0 Safari/537.36" version="27.1.5" pages="2">
  <diagram name="Activity Diagram - Login" id="RtbvNd9ARlPMmAiPcG-5">
    <mxGraphModel dx="1042" dy="574" grid="1" gridSize="10" guides="1" tooltips="1" connect="1" arrows="1" fold="1" page="1" pageScale="1" pageWidth="827" pageHeight="1169" math="0" shadow="0">
      <root>
        <mxCell id="0" />
        <mxCell id="1" parent="0" />
        <mxCell id="2" value="" style="ellipse;whiteSpace=wrap;html=1;aspect=fixed;fillColor=#000000;strokeColor=#000000;" parent="1" vertex="1">
          <mxGeometry x="60" y="100" width="30" height="30" as="geometry" />
        </mxCell>
        <mxCell id="3" value="Nhập tên đăng nhập &amp; mật khẩu" style="rounded=1;whiteSpace=wrap;html=1;fillColor=#dae8fc;strokeColor=#6c8ebf;" parent="1" vertex="1">
          <mxGeometry x="30" y="180" width="180" height="40" as="geometry" />
        </mxCell>
        <mxCell id="4" value="Gửi thông tin đăng nhập" style="rounded=1;whiteSpace=wrap;html=1;fillColor=#dae8fc;strokeColor=#6c8ebf;" parent="1" vertex="1">
          <mxGeometry x="30" y="260" width="180" height="40" as="geometry" />
        </mxCell>
        <mxCell id="5" value="Tìm tài khoản theo username" style="rounded=1;whiteSpace=wrap;html=1;fillColor=#dae8fc;strokeColor=#6c8ebf;" parent="1" vertex="1">
          <mxGeometry x="30" y="340" width="180" height="40" as="geometry" />
        </mxCell>
        <mxCell id="6" value="Tài khoản tồn tại?" style="rhombus;whiteSpace=wrap;html=1;fillColor=#fff2cc;strokeColor=#d6b656;" parent="1" vertex="1">
          <mxGeometry x="80" y="420" width="80" height="80" as="geometry" />
        </mxCell>
        <mxCell id="7" value="Báo lỗi: Sai thông tin" style="rounded=1;whiteSpace=wrap;html=1;fillColor=#f8cecc;strokeColor=#b85450;" parent="1" vertex="1">
          <mxGeometry x="250" y="500" width="140" height="40" as="geometry" />
        </mxCell>
        <mxCell id="8" value="So sánh mật khẩu" style="rounded=1;whiteSpace=wrap;html=1;fillColor=#dae8fc;strokeColor=#6c8ebf;" parent="1" vertex="1">
          <mxGeometry x="30" y="580" width="180" height="40" as="geometry" />
        </mxCell>
        <mxCell id="9" value="Mật khẩu đúng?" style="rhombus;whiteSpace=wrap;html=1;fillColor=#fff2cc;strokeColor=#d6b656;" parent="1" vertex="1">
          <mxGeometry x="80" y="660" width="80" height="80" as="geometry" />
        </mxCell>
        <mxCell id="10" value="Báo lỗi: Sai thông tin" style="rounded=1;whiteSpace=wrap;html=1;fillColor=#f8cecc;strokeColor=#b85450;" parent="1" vertex="1">
          <mxGeometry x="250" y="740" width="140" height="40" as="geometry" />
        </mxCell>
        <mxCell id="11" value="Kiểm tra trạng thái tài khoản" style="rounded=1;whiteSpace=wrap;html=1;fillColor=#dae8fc;strokeColor=#6c8ebf;" parent="1" vertex="1">
          <mxGeometry x="30" y="820" width="180" height="40" as="geometry" />
        </mxCell>
        <mxCell id="12" value="Tài khoản bị khóa?" style="rhombus;whiteSpace=wrap;html=1;fillColor=#fff2cc;strokeColor=#d6b656;" parent="1" vertex="1">
          <mxGeometry x="80" y="900" width="80" height="80" as="geometry" />
        </mxCell>
        <mxCell id="13" value="Báo lỗi: Tài khoản bị khóa" style="rounded=1;whiteSpace=wrap;html=1;fillColor=#f8cecc;strokeColor=#b85450;" parent="1" vertex="1">
          <mxGeometry x="250" y="980" width="180" height="40" as="geometry" />
        </mxCell>
        <mxCell id="14" value="Là khách hàng?" style="rhombus;whiteSpace=wrap;html=1;fillColor=#fff2cc;strokeColor=#d6b656;" parent="1" vertex="1">
          <mxGeometry x="80" y="1060" width="80" height="80" as="geometry" />
        </mxCell>
        <mxCell id="15" value="Đã xác thực email?" style="rhombus;whiteSpace=wrap;html=1;fillColor=#fff2cc;strokeColor=#d6b656;" parent="1" vertex="1">
          <mxGeometry x="80" y="1190" width="80" height="80" as="geometry" />
        </mxCell>
        <mxCell id="16" value="Báo lỗi: Chưa xác thực email" style="rounded=1;whiteSpace=wrap;html=1;fillColor=#f8cecc;strokeColor=#b85450;" parent="1" vertex="1">
          <mxGeometry x="250" y="1270" width="180" height="40" as="geometry" />
        </mxCell>
        <mxCell id="17" value="Đăng nhập thành công, trả về token &amp; thông tin user" style="rounded=1;whiteSpace=wrap;html=1;fillColor=#d5e8d4;strokeColor=#82b366;" parent="1" vertex="1">
          <mxGeometry x="30" y="1350" width="280" height="40" as="geometry" />
        </mxCell>
        <mxCell id="18" value="" style="ellipse;whiteSpace=wrap;html=1;aspect=fixed;fillColor=#ffffff;strokeColor=#000000;" parent="1" vertex="1">
          <mxGeometry x="60" y="1430" width="30" height="30" as="geometry" />
        </mxCell>
        <mxCell id="19" style="edgeStyle=orthogonalEdgeStyle;rounded=0;orthogonalLoop=1;jettySize=auto;html=1;endArrow=block;endFill=1;" parent="1" source="2" target="3" edge="1">
          <mxGeometry relative="1" as="geometry" />
        </mxCell>
        <mxCell id="20" style="edgeStyle=orthogonalEdgeStyle;rounded=0;orthogonalLoop=1;jettySize=auto;html=1;endArrow=block;endFill=1;" parent="1" source="3" target="4" edge="1">
          <mxGeometry relative="1" as="geometry" />
        </mxCell>
        <mxCell id="21" style="edgeStyle=orthogonalEdgeStyle;rounded=0;orthogonalLoop=1;jettySize=auto;html=1;endArrow=block;endFill=1;" parent="1" source="4" target="5" edge="1">
          <mxGeometry relative="1" as="geometry" />
        </mxCell>
        <mxCell id="22" style="edgeStyle=orthogonalEdgeStyle;rounded=0;orthogonalLoop=1;jettySize=auto;html=1;endArrow=block;endFill=1;" parent="1" source="5" target="6" edge="1">
          <mxGeometry relative="1" as="geometry" />
        </mxCell>
        <mxCell id="23" value="Không" style="edgeStyle=orthogonalEdgeStyle;rounded=0;orthogonalLoop=1;jettySize=auto;html=1;endArrow=block;endFill=1;" parent="1" source="6" target="7" edge="1">
          <mxGeometry relative="1" as="geometry" />
        </mxCell>
        <mxCell id="24" value="Có" style="edgeStyle=orthogonalEdgeStyle;rounded=0;orthogonalLoop=1;jettySize=auto;html=1;endArrow=block;endFill=1;" parent="1" source="6" target="8" edge="1">
          <mxGeometry relative="1" as="geometry" />
        </mxCell>
        <mxCell id="25" style="edgeStyle=orthogonalEdgeStyle;rounded=0;orthogonalLoop=1;jettySize=auto;html=1;endArrow=block;endFill=1;" parent="1" source="7" target="3" edge="1">
          <mxGeometry relative="1" as="geometry" />
        </mxCell>
        <mxCell id="26" style="edgeStyle=orthogonalEdgeStyle;rounded=0;orthogonalLoop=1;jettySize=auto;html=1;endArrow=block;endFill=1;" parent="1" source="8" target="9" edge="1">
          <mxGeometry relative="1" as="geometry" />
        </mxCell>
        <mxCell id="27" value="Không" style="edgeStyle=orthogonalEdgeStyle;rounded=0;orthogonalLoop=1;jettySize=auto;html=1;endArrow=block;endFill=1;" parent="1" source="9" target="10" edge="1">
          <mxGeometry relative="1" as="geometry" />
        </mxCell>
        <mxCell id="28" value="Có" style="edgeStyle=orthogonalEdgeStyle;rounded=0;orthogonalLoop=1;jettySize=auto;html=1;endArrow=block;endFill=1;" parent="1" source="9" target="11" edge="1">
          <mxGeometry relative="1" as="geometry" />
        </mxCell>
        <mxCell id="29" style="edgeStyle=orthogonalEdgeStyle;rounded=0;orthogonalLoop=1;jettySize=auto;html=1;endArrow=block;endFill=1;" parent="1" source="10" target="3" edge="1">
          <mxGeometry relative="1" as="geometry" />
        </mxCell>
        <mxCell id="30" style="edgeStyle=orthogonalEdgeStyle;rounded=0;orthogonalLoop=1;jettySize=auto;html=1;endArrow=block;endFill=1;" parent="1" source="11" target="12" edge="1">
          <mxGeometry relative="1" as="geometry" />
        </mxCell>
        <mxCell id="31" value="Có" style="edgeStyle=orthogonalEdgeStyle;rounded=0;orthogonalLoop=1;jettySize=auto;html=1;endArrow=block;endFill=1;" parent="1" source="12" target="14" edge="1">
          <mxGeometry relative="1" as="geometry" />
        </mxCell>
        <mxCell id="32" value="Không" style="edgeStyle=orthogonalEdgeStyle;rounded=0;orthogonalLoop=1;jettySize=auto;html=1;endArrow=block;endFill=1;" parent="1" source="12" target="13" edge="1">
          <mxGeometry relative="1" as="geometry" />
        </mxCell>
        <mxCell id="33" style="edgeStyle=orthogonalEdgeStyle;rounded=0;orthogonalLoop=1;jettySize=auto;html=1;endArrow=block;endFill=1;" parent="1" source="13" target="3" edge="1">
          <mxGeometry relative="1" as="geometry" />
        </mxCell>
        <mxCell id="34" value="Có" style="edgeStyle=orthogonalEdgeStyle;rounded=0;orthogonalLoop=1;jettySize=auto;html=1;endArrow=block;endFill=1;" parent="1" source="14" target="15" edge="1">
          <mxGeometry relative="1" as="geometry" />
        </mxCell>
        <mxCell id="35" value="Không" style="edgeStyle=orthogonalEdgeStyle;rounded=0;orthogonalLoop=1;jettySize=auto;html=1;endArrow=block;endFill=1;" parent="1" target="17" edge="1">
          <mxGeometry relative="1" as="geometry">
            <mxPoint x="120" y="1190" as="sourcePoint" />
          </mxGeometry>
        </mxCell>
        <mxCell id="36" value="Có" style="edgeStyle=orthogonalEdgeStyle;rounded=0;orthogonalLoop=1;jettySize=auto;html=1;endArrow=block;endFill=1;" parent="1" source="15" target="17" edge="1">
          <mxGeometry relative="1" as="geometry" />
        </mxCell>
        <mxCell id="37" value="Không" style="edgeStyle=orthogonalEdgeStyle;rounded=0;orthogonalLoop=1;jettySize=auto;html=1;endArrow=block;endFill=1;" parent="1" source="15" target="16" edge="1">
          <mxGeometry relative="1" as="geometry" />
        </mxCell>
        <mxCell id="38" style="edgeStyle=orthogonalEdgeStyle;rounded=0;orthogonalLoop=1;jettySize=auto;html=1;endArrow=block;endFill=1;" parent="1" source="16" target="3" edge="1">
          <mxGeometry relative="1" as="geometry" />
        </mxCell>
        <mxCell id="39" style="edgeStyle=orthogonalEdgeStyle;rounded=0;orthogonalLoop=1;jettySize=auto;html=1;endArrow=block;endFill=1;" parent="1" source="17" target="18" edge="1">
          <mxGeometry relative="1" as="geometry" />
        </mxCell>
      </root>
    </mxGraphModel>
  </diagram>
  <diagram name="Sequence Diagram - Login (Chi tiết)" id="fqR1oweMe9YSXZYlbpJx">
    <mxGraphModel dx="1303" dy="718" grid="1" gridSize="10" guides="1" tooltips="1" connect="1" arrows="1" fold="1" page="1" pageScale="1" pageWidth="1200" pageHeight="1600" math="0" shadow="0">
      <root>
        <mxCell id="0" />
        <mxCell id="1" parent="0" />
        <mxCell id="mds3HlkTgyTZjzHKJYKE-15" value="" style="shape=image;verticalLabelPosition=bottom;labelBackgroundColor=default;verticalAlign=top;aspect=fixed;imageAspect=0;image=data:image/png,iVBORw0KGgoAAAANSUhEUgAAA+oAAAJ4CAIAAAB9JY55AAAAKnRFWHRjb3B5bGVmdABHZW5lcmF0ZWQgYnkgaHR0cHM6Ly9wbGFudHVtbC5jb212zsofAAACVWlUWHRwbGFudHVtbAABAAAAeJxtU8tq20AU3c9XXLKywY4d45aiRYgju6V+NKKy0/V4NLYGSzNiNHIaQhYly276CTWluxZaUijYiy4c+h/6k15JfmBcLcTonnPPfZzRRWyoNkkYEMqM0jCKuSYRhgQTEZUGTuxAcGlOgMZgHyIu13Ouc8Q9RFqMqQQP7cscbR2ijlYTEfAt6pCsKFTPwbbgjZ8uv0eQYETSkFcgonF8o7RH7IzhWuBcuUOo0UjUaGL8WqCmQsLdccI9cbOMlgXD9bcQ6KYl43O1kyctqBaqQ50uv8A8XX3YMUsyXf5JgK0fy4UU0noiXT2EYDTd1angV7pcyClKrxeiAu/XC4bndPWTAQ+pwNUGBnr++lfGyXpBcPn1dlfIV+nyN4OYiv20gI+bN4dLadbP4LWc00B4wDT30A9Bg5jwIOaw3fU4XX2Emb9+pMfJW06g2Ix7RZ7t//1Bj5uFEktio0Kuy8c6nZwhlQE0XkzEVuvp09MDDicL83APn6WPi8OBtxrn4FjQz8eONvbnTmiFp13JGt7GyaRGvVDIorzzH4M2AnvpDEYLFHTfDcGoGZeHrTfqdbjL45XcehByou4Jlx65wFd2+4kT4N0cDfrZZLFQEs5OG/XGs9PmmBvaKI3kTKobCUyFUd68CHmZlF45fYhVohkHT8RGi3FiMLlMunRO4S3uHHkWXEVcdtu9bQA6ci60kiEaSbrXgz3hebN6KQwUfxZcD0ibT2iC16cjmfKEnFowGr6sviB9KqcJnaI2Dmtn5upbxFzyD5diVrJ9KfYDAACAAElEQVR4XuzdCXgN5/4H8CCUiCW2LJYEkUUqQmxXuS1aS2tXSy33Sl1bteVyS2mDWmKtorW2ltpKi6BUbYkoieUmEiobiSwIqSX2IDL/3/+81xizZXJykswk388zj2fOOzPvvPOeeZPvjDknVhwAAAAAABiElbgAAAAAAAD0CvEdAAAAAMAwEN8BAAAAAAwD8R0AAAAAwDDyFN8vXry4dOm3c+bMmz17Lk3ffLMkLi5evBIAAAAAAFiImfH92rVrX301Y/Xq9dHRqSkpGWyi+WXL1nzxxdTU1CviDQAAAAAAIM/Mie+RkZFffTUzMfEvPrgLp4SE9M8/n3r6dLh4MwAAAAAAyJtcx3fTffeZ0tQumijBJyenijcGAAAAAIA8yHV8nzFjRlLSTWleF00JCemTJn0p3hgAAAAAAPIgd/E9Pj5+/fpN0rAuOy1fvu7cuWhxFQAAAAAAYK7cxffly5dfupQmTeqyU3R06sKFS8RVAAAAAACAuXIX3xcuXHjlyl1pUleapk2bLa4CAAAAAADMlbv4vmDBQmlGV5mmTkV8BwAAAACwmNzFd9x9BwAAAAAoRLmL73j2HQAAAACgEOUuvuObZwAAAAAAClHu4juH730HAAAAACg8uY7v+KurAAAAAACFJdfxnURGRlKCT0z8S5raU0z33Sm7nz4dLt4MAAAAAADyxpz4zv3vHvyM1avXR0en8sGd5pctW/PFF1NTU6+INwAAAAAAgDwzM74zFy9eXLr02zlz5g0e/I/Zs+d+882SuLh48UoAAAAAAGAheYrvvIULF4qLAAAAAADA0hDfAQAAAAAMA/EdAAAAAMAwEN8BAAAAAAwD8R0AAAAAwDAQ3wEAAAAADAPxHQAAAADAMHKI79u2bVuoQe/evcVFcqg28Q4AAAAAAECzHOK7Rgtx9x0AAAAAIP8hvgMAAAAAGAbiOwAAAACAYSC+AwAAAAAYBuI7AAAAAIBhIL4DAAAAABgG4jsAAAAAgGEgvgMAAAAAGAbiOwAAAACAYSC+AwAAAAAYBuI7AAAAAIBhIL4DAAAAABgG4jsAAAAAgGEgvgMAAAAAGAbiOwAAAACAYSC+AwAAAAAYBuI7AAAAAIBhIL4DAAAAABiGBeL7o0ePBgwYQP+KFwAAAAAAgEXlNb4/f/7c39//woUL9C/NixcDAAAAAIDl5DW+L1y4MD4+nmboXzxCU2zdvXt37twF06YF+PvP0ts0bdrsWbPm3b59R9xogGJDzyNUOk2dOuvw4WDxMQAYx507GbNnzzfKiCuwiTokIGB+RsZdcX+96siRo/RDQLp5UZ2oW+bMWUA/pcUdoSpP8f3HH388ceIE/5LmqUSwHIqLBQsWXbiQkpKSoc+J2hYQsEDcaIBiQ+cjVDqtX7/tp5+2ig8DwCAojRlrxBXYRN0yb57ard6dO3f++OPP0g2L9kTdMn/+1+K+UGV+fP/999937NghKqQSKhcVQpE3a9Zc6emoq2nq1NniRgMUG/ofodJp5kyMWTCqadNmS09pTGyaMSNA3F8Cc+fOl25SHKaZM+eI+0KVmfE9MjJy+fLl4lITKqel4lIo0vQfDqZOnSVuNECxof8RKp3mzJknPgwAg0B8V5m++grxXWaaMSP/43tqaurMmTPFpQK0lNYRl0LRpf9wgPgOxZn+R6h0QnwH40J8V5kQ32WnfI/vd+/enTJlytOnT8ULBGgprZPbx/DBuPQfDhDfoTjT/wiVTojvYFyI7yoT4rvslL/xXXsu15LyocjQfzhAfIfiTP8jVDohvoNxIb6rTIjvslP+xvdcPRWT4zM2UGToPxwgvkNxpv8RKp0Q38G4EN9VJsR32Skf47sZn0lV+YQrFCX6DweI71Cc6X+ESifEdzAuxHeVCfFddsqv+G72N0LKfr8kFDHq4SAhIf2XX35bvHjVhg3bT5+O4cunTZvzzTcrpfP5MSG+Q3GmMkIvXry+deseGp7r128LC/tTukJhTYjvYFzq8T05+c7evcFhYeeli/Q5hYaeowbT9Pvvx+mnBLVfaYV9+44ePx6ZmHhTWgk/mR3fhc04fz5JuoKWiX7c+fmN7NWr34kTUXkMIZbtlnyJ73n8e0yiv+4ERY9KOFiz5id7ewdbW9smTZp5eDS0ti793ns92VneseO7//zncLZa9+59hg8fI91c4/SPf/xr8uTp0nJ+QnyH4kxphAYGHqThWbVq9WbNWrm41CtZsqT6OCrICfEdjEs9vm/eHGhlZVW/vpt0UWFN6r9D33//A2trazu7KpUqVaafEhUqVBw48J9nz16UrkBTqVKlqlWrsXLlBmk9bDI7vvN7sbWtQB3Yps1b4eFx0tVUJsrZFELGjp0YELDo7NlLwuAhDCQaJ8t2i+Xje3x8/MKFan8iSwuqgeoRl0JRoRQOfv55H52y//rXRxcvXmclp0/H9OzZl12DmjFalKb27Tt9+OEoaTk/Ib5DcaY0QuvVc6XL6cTEv9jLkycv7N//h3S1QpkQ38G41OM7pca//a0N/XIMDDwgXVook/rvUIqhrVq9weYvXbqxadNONzePWrXqREUlSlegX/cDB/7ztdfKxsf/7/e+aMpLfOf3cuTIyRo1HOjHl3Q1lemrr+Z5eDSUlqeYFUgs2y0Wju/p6en+/v7Pnz8XL8glqoHqodrEC6BIUAoHTZo08/Lylv6PEpuEo+XLL2ctXLiMX7R+/Tb6aeLl1YgG52+/hfDln3325bff/jB37mJf3xYtW7Zmm8ye/bW9vQMFkW7detN05kysdF+I71CcyY5Q+nViZWW1ZMlq6SI2qQzDpUu/nzVroa9vy/79B69bt9XPb6Rww/nzvx0/fnKuKhFuzibEdzAulfj+55/JlOE2bNj+5psdPvjgH6KlP/74y9tvd/b09Grd+u/0q02lkCb6DUiXAQ0bvt6794BjxyL48tGjx9Go5F9+9dVc+qXJ5s37HSqMoWwKD4+zsbH56KN/y66wbdte+tkSEhIuqodNFonvNI0c+Un16vYpCj9MpJ0zbdoc6sNKlSrTMbJrFWHwEMV3pR9cwsmy3WLh+L5u3bpHjx6JS81C9VBt4lIoEmTDAV2AlihRYvp0mUVsEo4W4TwNp/Lly0+ePP2nn3b/+9+fly1b9sCBE2zRG2+86eRUs3v3PmvW/DRp0tSSJUvSOnv3Bjdq5EMjbeXKH2mKjr4i3RfiOxRnsiOUptq1nX18fHfvPnz58i3RIvVh6ODgSGN2+fJ169f/fPTof+l30sGDoWxpUtJtR0cn+k2Zq0pEe09BfAcjU4nvlDJr1HCgEUcx2tbWNi4ujV80b95Sa+vSH388YcuWXbSUUrhSYYoplNOAooFGVwLvvNOlSpWq585dZosos37xxUy+WkqrAwYMYfPm/Q6V5lRWLaVb6QoREfE9e/alny38f+uJJkvF9379Brm41EuR+2Ei2zm7dh3q1atfnToudIxUnmJWCFFpD5vM7hYLx3cALWTDwf79f9Av9bVrX94DEE2yIycx8WbVqtW++moev1rfvgN79HifzdMopZ8y/O38N9/swLZS/4+/FMR3KN5kRyhN9PvM2bkujVMbGxsaTUuXfs/KcxyGDRp4CP9Xzde3Bf8I6aZNOyltnD17KbeViCbEdzAulfju7d1k5MhPUkz//VWhQkX+45KU6ipXtuP/20ql0FR+s1KlynxGp5c1a9YeO3Yie6ke3834HSqbU8eMGW9nV4VfwUqArk/27TsqrYdNeYnvlIx37Ph927a9Eyf6W1tbjxs3KUXyw0Slcz7/fBodPl+hGSFEOFm2WxDfoRDIhgO6WqXzVeWDGrIj59ChMNpq8OAP6ZKXRiYNub//vb2npxdbjUap8EfMkCHDunTplpLTj54UxHco3mRHKJvod96vvwZNmzaHBhcNPRYschyGNPSElcyZ8021ajXYZ1p69uxLw9mMSkQT4jsYl1J8Z4OC/6+qgQP/yec/KqRForu8soU0HTsWQeVUG1/Sv//gDh06s3n1+G7G71DZnDpq1Kc06vkVmjRpFhp6jqb9+/+gaikBK32TVV7ie+nSZRwcHGvVqtO8eauvvprLfuaIfpiodI6W+K7+g0s4WbZbEN+hEMiGg5iYq6VKlZo0aap0EZtkR86ePUdo5NAAoGHGT/zTfjRK+f86pIk2YUFB/UdPCuI7FG+yI1Q6+fmNsrYuTb8RczUMabpwIeW118quX78tOjq1bNmy33+/OSWXY1k6Ib6DcSnF92HDRtOvxWbNWrGpbt36JUqU+OOPs7SIrqJpvAgfYVcqTDF9gwqVHz8eyZcMHTqideu2bF4U37t27SWM72b8DpXNqW++2cHXt6XsCsnJd+zsqrBb49IpL/Fd2owUyUGpdI6W+K7+g0s4ybbH7G6xQHyPiYlJSkoSlty6devMmTPZ2dnCQgCeUjignwg1a9a6dOmGsJB/KTtyzp27XLJkSaV79ko/euhf0YfnRBPiOxRnSiNUNM2bt5TCBF1452oYsql79z7vvtuDaqhatRp7uNOMSoQT4jsYl2x8p3FBo6N//8Fff72cn2rVqvPpp5/R0vPnk2i8LF++TriJbCFN0dFXaKj+8MMWvqRly9b8B2EpMn7yyX/4Rd7eTXKM7+q/Q6U5dd++o3Qdwj7iIl0hKel25cp2o0ePlVaVkv/xXaVztMR39R9cwknanrx0iwXie8uWLYcNGyYs2bhxI12LPH78WFgIwFMKB0eP/rdChYrt23cMCjqVYnqkbPPmQC8vb+kXRwrne/ceUKeOC//fhbTtli272LzSjx4/v1F0vRsREU/JQ/ZpWsR3KM5kR2hCQnqvXv0CAw+y73U9cuSkm5tH06bN2VLtw5BNGzZsL1PmNS+vRsJ7eLmtRDghvoNxycb3Vas2Ui4U/u1CmsaNm+TkVJOCXYrpwTNn57qHD59MMf263LHjd6VCmnr0eL9hw9fZF58vWbKaAuuePUfYohEjPq5XzzUqKpF+G9IVNQXKHOO7+u9QiqE+Pr7HjkXQ7/SdO3+fMGGKrW2Fv/2tDX8zjl+BJoqwAwcOpSPlmyqa8ju+pyh3jpb4nqL6g0s4WbZbEN+hEMiGAzbRDx0aWnTKvvZaWfohUr26Pf+3IZRGTmzstX79BllbW9N1qo2NDf07Z843bJHSj57jxyObNWtVrlw5OlGDg08LG8AmxHcozmRHKEUBurQuW7YsDU82dtq2bRcaeo4t1T4M2XT58i17eweqRPjN8bmtRDghvoNxycb3Dh06t279d1Eh++KmjRt3pJhuG3ft2ouyZpUqVUuXLsMe15YtpOns2YuUZWnwVqxYicYvf8c3xfQlJxReadyVL1/+3Xe7d+7cNcf4rv479P0XH8GkX+LUjNat2wYELGK34UQrEIqwlFlXr94kqoSfCiC+K3WOxviu8oNLOFm2W/I9vp8/f37gwIFNmjRp1aqVn59fWloav9revXvfe+89Hx+fvn37hoeHs8JZs2Zt3rx52bJlrVu3/vDDD/mVoSiRDQfC6fz5pIMHQ//7X/G3yapM9DOLNgkLOy/9SjszJsR3KM5URmhCQjr95j5y5GR0dKp0qUWGoXmVIL6DccnGd41TVFTigQMnRH9PVLaQplOnomlwCb99kk3JyXdoXJ88eUFUrofJ7Pie20mpczRO5v3gMnvK3/iemZlZo0aN0aNHBwUF7du3z9/fn/9bqmvXrrW1tZ07d+7hw4enTZtGlztRUVFU3qFDh5o1a/bo0WPbtm20ibBaKDJUwoFOJsR3KM70P0KlE+I7GFde4nuRnwosvhtryt/4fvHiRZq5cuWKcCl59uxZ9erVly5dypcMHTr0gw8+4EzxvWHDhvjYa9Gm/3CA+A7Fmf5HqHRCfAfjQnxXmRDfZaf8je8U019//XUXF5fPPvvs0KFDT58+ZSucP3/e6v+/Z2fUtGnTpk6d6u/v37FjR29vb84U30ePHi2sDYoe/YcDxHcozvQ/QqUT4jsYF+K7yoT4LjtZIL6//fbb/fv3F5YsW7asTJkyz58/p/n79++vXLmyZ8+eFStWrFevXkJCAhWeOnWK4jtl+jkCy5cv50zxfdKkScLaoOjRfzhAfIfiTP8jVDohvoNxIb6rTIjvspMF4vvIkSO9vLyEJWPGjPHw8BCWcKYcT4UU2TnTF8OXLFly+/btonU4xPfiQf/hAPEdijP9j1DphPgOxoX4rjIhvstOFojvZ86cKVGixLx58zIzM58/f/7777/b2touWrSIFiUlJdFLdhueInv9+vXnzp3LthoyZEi9evXYx1VJdHT0oUOHOMT34kH/4QDxHYoz/Y9Q6YT4DsaF+K4yIb7LThaI72TFihV2dnam7+p+rXTp0qNHj2aPuZ87d87e3r5MmTK1a9emRT179nz48CHb5MGDB35+ftbW1lWqVClfvjz9u3LlSg7xvXjQfziYOnW2uNEAxYb+R6h0CghAfAejQnxXmdTjO123SzcpDpNl4jtn+jKZmJgYyuuUy0WLUlNTqfzWrVuicnLv3j1alJSUlJWVJV4GRdesWXOkf6dNPxO1DXffoTjT+QiVTv/9b9yKFf9/AwjAiKZPn22sEVdgE3XLjBlq8X3lylU0/KUbFu2JumXmTAvFdwDtjh37Y9Om7dIzUifTjz/+fOTIUXGjAYoN0wj9RTo09DnRL+8JEyY+efJEfBgABhEcHLJhw8/ScxsTdUtIyDFxfwnQwP/PfyYVtwS/ceMvx46pdYsU4jtYxo4dO+bNmz93ru6mmTNnbd26VdxcgGJGtyNUOi1fvpL/VmIAg9q+fbv03C7m08yZs7du3SbuKQka/itWrJRuXlQnjd0iYpn4fuLECXERQB7gjALQP4xTAP3DONXIWB1lmfi+cOFCcRFAHuCMAtA/jFMA/cM41chYHYX4DnqEMwpA/zBOAfQP41QjY3UU4jvoEc4oAP3DOAXQP4xTjYzVUYjvoEc4owD0D+MUQP8wTjUyVkdZJr4b63l/0D+cUQD6h3EKoH8YpxoZq6MsE98BAAAAAKAAIL4DAAAAABgG4jsAAAAAgGEgvgMAAAAAGIZl4ruxnvcH/cMZBaB/GKcA+odxqpGxOsoy8d1Y37YD+oczCkD/ME4B9A/jVCNjdRTiO+gRzigA/cM4BdA/jFONjNVRiO+gRzijAPQP4xRA/zBONTJWRyG+gx7hjALQP4xTAP3DONXIWB1lmfieT8/7b9++/eLFi+JSKAby6YwCAAvCOAXQP4xTjYzVUZaJ7yq2bNkyc+bMjIwMvmTNmjVhYWFsvkuXLoGBgfwioX379rVo0aJVq1bPnj0TLwMjSE9Pd3Z2vn37tngBAAAAAJgr3+N7p06drKyspkyZwpf4+vouWLCAzTdu3Hjjxo38It69e/couFP+W7hw4dy5c8WLwQjS0tLorf/rr7/ECwAAAADAXAUR3//2t7+VL1/++vXrrEQa3zMyMkJCQpKTk19uxnFJSUlHjx69cOHC8+fP+cIbN248fPjw5s2bwcHBtIJg9ZcoNWZmZrL5rKys1NTU7Oxsfml8fHxQUFBERMTTp0/5dcLDw8PCwu7fv8+vxnZ0584d2hFdRfAluW3q7du3adGVK1dYYUxMDO2Ibx6nsHcVKj0g2wxO7pClhbR3PmdT/dRpbJ6qonlW4ZMnT86ePRsZGSmsR9pRbD4xMRHxHQAAAMDiCiK+f/HFF2+//faYMWNYiSi+Dx8+vH79+i1btixbtux3333HyocOHVq3bt327du7uLg0a9bs1q1b/PqDBg2iwjZt2pQrV27+/PmsXKhmzZqHDh1i8xQ9KUFSoORMSbRPnz5OTk7vvPOOj49Px44dqTA2NrZBgwYeHh5UYfXq1ffv3882pB1RG2jlpk2b7ty5k5Xktql+fn60fvPmzcuUKRMYGEgvvb29nZ2d6V+KvCp7V6HUA7LNkD1k2cK9e/dSw1hVEydOpE6Ljo6m+WPHjlWtWpU2OXPmTJ06dWjvXl5edFDnzp1jK4s6iq4fKlWqRG+xu7v7yJEjEd8BAAAALMsy8V3leX8W3yn8UYRNTEzkJPGdEuS9e/c40wdVK1SowG70Cu/+9u7de/Lkyfz6lB3Z49QhISGlS5dOSEhgi3hK8T0qKqp8+fIsN5O7d+9mZ2e3atXK39+flezevdve3p6tQDuiVM1ncVaS26ZSjH7w4AHNz5gxg6L2okWLaD4zM9PV1XXt2rUqe1eh1AOyzZAeslIhHZe1tfWlS5c40xvUqFGjb7/9luanTZv2/vvvZ2VleXp6Uqxnm4waNYrCOvs/DWFH0a5pfubMmTRPSwcMGGB2fFc5owBAJzBOAfQP41QjY3WUZeK7yrftsPhOM3369Bk8eDAnie9Llixh8xSyKe2x50wo/B0+fJgWURbs3r07VcKvP2vWLDbPmari74LzlOI7zdMlREBAQHx8PFtKlxO0lELw2RcqVap08uRJzrQj0a19M5q6dOlSNn/06NGSJUvyz8xQP0yaNEll7yqUekC2GdJDViokrVu3XrVqFV0YVK5cedOmTT169KDCNm3arFixIjY2lprKno0hdMFAL1NSUrhXOyomJobK+aeAwsLCzI7vKmcUAOgEximA/mGcamSsjiq4+E4RkFLjuXPnpM++s/nHjx9T2mPfFNmtW7cmTZpMnz6dEvDAgQNbtmzJr//DDz+wedK1a9cvv/ySf8koxXdy4MCBzp0729jY1KtXb9u2bRSdKVV3elVoaCj3asMYM5rKr09Btnz58myeDBs2bOzYsSp7V6HUA0rNEB2ySqG/v3+/fv127NhBdVJSpxCfkZFRunRpSvl0+WFtbc1W414c/qlTp7hXD5NWs7W15VdLSkpCfAcowjBOAfQP41QjY3VUwcV3zhRbKWXmGN8TEhIo17LHVDhTrBRmYv5pE9KoUaOVK1fyLxk3N7c9e/aw+fDwcGF8Z548eUIZl4LphQsX+JvoIhrju3pT1eM7S7eye1ch2wMqzWD4Q+bXkRZS+K5WrdqoUaMWL17MmXY0derU2rVr0/ylS5eoqVevXmUbsrvs7KXwMKlDqJx/4oiuTxDfAYowjFMA/cM41chYHVWg8T01NbVs2bIVKlRQj+/Jyck0c/78ec6UCO3t7YWZuGbNmizyBgYGUm18puT16tXLz8+PM8XTfv368fGd4nJcXBxb58SJE6VKlbp//3779u379u3LnlDPzs4OCgrKysriNMd39aaqx3eaUdr7b7/9xj9DLyLbA0rNkD1k2ULO1F02Nja2trasnvHjx9P80KFDOVPb6KJr5MiRNEMt7N+/f9u2bVkNoo5q2rTpuHHjWG1dunRBfAcowjBOAfQP41QjY3WUZeK7yvP+wvhOJkyYQJFOPb6z1cqVK+fp6enq6kpxUJiJx4wZ4+zsTOWUNdesWcPKhaKiohwdHZ2cnBwcHGbPns3Hd2qknZ1drVq1vLy8aGbFihVUeO3ata5du1JOdXd3r1y5so+PD/tWRI3xnVNtao7xXWnvU6dObd68Ob++kFIPyDZD9pBlC5mOHTtS9Gfz+/bto2PcsGEDexkdHe3t7V2jRo2qVatSlGcfcuUkHRUREUFXF1Q5vQV0FGbHd5UzCgB0AuMUQP8wTjUyVkdZJr7nh7S0tCNHjoj+5CoLi5mZmZQm2VemyKKt4uPjhQ+KMFlZWZcvX46Li6P8LSy/f/9+TEyM2X8fND09nepkN87NIN17hw4dtm7dKljlJZUekG2G7CHLFmpB1xv0vohLX0VXINQ24d/Z5V2/fn3Tpk2iZ5kAAAAAQDv9xnfKl1aCrzFhpDfFi6SFCxeK/vQSz+g9EBoa6unp+cEHH7BPvgIAAABArug3vlNwX7duneju+yeffBIcHCwsKW6KQA9Qgnd2dnZ0dGzUqNHixYtxMx4AAABAO/3GdyjCKMG7u7vXrl3bycmJ/u3Xrx9uxgMAAABoYZn4bqzn/UEPWIJ3dnZ2MKlTp47wZjzOKAD9wzgF0D+MU42M1VGWie8sgQHkXf369YOCgoz1/U0AxRPGKYD+YZxqZKyOskx8N9Yxgx6Ehoa6urqy7/ekfym1N23adOXKlezuO84oAP3DOAXQP4xTjYzVUYjvUAhYdnd0dHRxcXF2dv7www9Fz77jjALQP4xTAP3DONXIWB2F+A4FjbJ7nTp1KLsLb7eL4IwC0D+MUwD9wzjVyFgdZZn4bqzn/aEQse99l95uF8EZBaB/GKcA+odxqpGxOsoy8R1AC/zVVQAAAIA8QnwHAAAAADAMxHcAAAAAAMNAfAcAAAAAMAzLxHdjPe8P+oczCkD/ME4B9A/jVCNjdZRl4ruxvm0H9A9nFID+YZwC6B/GqUbG6ijEd9AjnFEA+odxCqB/GKcaGaujEN9Bj3BGAegfximA/mGcamSsjkJ8Bz3CGQWgfxinAPqHcaqRsTrKMvHdWM/7g/6pnFFbtmyZafLNN98cPHhQuOjZs2ebNm0aOXKkn58fLRX9fahdu3aNHTt26NChX3755e+//56VlcXqEZk9e7ZwK966devi4+PFpRr07Nlz69at/Euz67l27dr9+/f5l126dAkMDBQsfwW/F9HetTNvw+fPn48ZM+b1118fN26ceBkUtvT0dGdn59u3b9P8L7/84ubm1r1799TUVPF6mqmMUwDQCYxTjYzVUZaJ7wAFplOnTo0bN6aM+I9//KNy5crvvfdednY2lWdkZLRo0aJBgwaUvxcvXvz3v//d0dHxwoULbKuPPvrIwcHB399/6dKln3zyCQUXyvrDXnBxcXF3d2fzI0aMeGV/Jg8fPixfvvxff/0lXqBBQEDAH3/8webzUo+vry+Fcv4ldcLGjRtfLhYQ7qVly5bff/+9eA0NhM3Wjq6L7Ozs6Mrh6dOn4mVQ2NLS0qysrNiJQZevlOY7dOjw2WefidcDAAB9Q3wHg6H4PnbsWDZ/9uxZiiPHjh2jeUrelN3v3bvHFlGm79Wr1+uvv04zFGdLlix5+PBhvpLnz5/z86RPnz60ubBEZOfOnW3btmXzSUlJR48epQsDYSU3btygvdy8eTM4OJhW4Ms50y1PWsTmhfVwClVRxsrMzGTzlLFSU1PpEG7duuXt7b1o0SJ6SRVyL+I7XbSEhIQkJyfzm3Ov7kUY3588eUI9FhkZKcrW1GnHjx9PTEykZlD9rDHCZrOjk92XyOrVq5s3by4qlD0i9pKCflBQUEREhLBJtE54eHhYWJjwfxtYG+7cuUM9TG1TaZJsr7L1b9++TYuuXLnCCmNiYmgvfNsY2b0rUXnfZZvBKRyyqJB2zV/jUf38DXLhG8QpvKGijqISNk/vrzC+M3RB279/f/4lAAAYAuI7GIwwvlPSKlWq1E8//fTgwYMyZcqsXbtWuGZsbCyFFYpQFNpoZs+ePcKlQjnG93/+85/sqbihQ4fWrVu3ffv2Li4uzZo1o1TNVqAwPWjQICps06ZNuXLl5s+fz28rDNB8PZxyVTVr1jx06BCbp6xGLaf4NWXKFBsbG1rT19eXNuRMexw+fHj9+vWp/rJly3733XdsE+7VvfB7P3PmTJ06dWgrLy8v2urcuXNsBQp2dnZ2lLk9PDxGjhzJxzths1X2JbJixQpaR1Qoe0SUQanbnZyc3nnnHR8fn44dO7IV6F2jyzBqDPVk9erV9+/fz8qpDXTgtH7Tpk3p+kSpSUq9Suv7+fnR+nSkdKoEBgbSS7oicnZ2pn/5CxWlvStRet9lmyF7yLKFe/fupYaxqiZOnEg9Fh0dTfN0pVq1alUW35XeUFFH0flfqVIlOm3c3d2F7y8zbdo02jv/EgAADAHxHQxGGN9Xr15dokQJSjanT5+mXHL+/PlX1+UqVqz4zTff0MyQIUMotHXr1m3evHlRUVGi1dTjO10kVKtWjT1KLrwP2rt378mTJ7OXlJkoQrGnikNCQkqXLp2QkMAW8TlYWA+nXJVs2OXkHp6htMf+t2H79u0VKlRgqU60F7Z3KvT09KQgyApHjRpF2S47O/vZs2eUMhcsWMCZ/r+CekkpvsvuS2rOnDnt2rUTFcoeEb0L5cuX53Pz3bt3OVMbWrVq5e/vzwp3795tb2/P1qE2UKoWxnHZJin1Kq1PMZou82h+xowZFLUXLVpE85mZma6uruzCT2XvSpTed9lmyB6ybCEdl7W19aVLlzjT+96oUaNvv/2WM6Xt999/nzO9y7JvKPdqR9HeaX7mzJmc6egGDBggiu80HN5++23+JQAAGIJl4ruxnvcH/VM5oyi+V6pUiTJTjRo1KPcsXryYMyUnyiUpKSmilWvXrs1/FJXSGGV0d3d3WpPyOgUgfjX1+E6VN2zYkM1TBjp8+PCSJUsoEnXv3p0aw8opM82aNYvfhCIXfz+Yz8HCejjlqmTDLicX32lbNk8r0GrsmRDRXtje2X9EsEcpCEVM1l1//vknXf88evSIlZ85c0YpvsvuSygxMXH58uXOzs4rVqwQLZI9IpqhC6qAgADhB3mpElpKh3D2BXqvT548yZnaIPw/DaUmKfUqrb906VI2f/To0ZIlS/LPzAwePHjSpEmc6t6VKL3vss2QPWTZQtK6detVq1bRhUHlypU3bdrUo0cPKmzTpg3rXqU3lHu1o2JiYqicfwooLCxMFN8jIyOrVKlChxAaGsoXaqcyTgFAJzBONTJWR1kmvhvr23ZA/1TOKEpCAwcOpGh18eLFJ0+esEKKPpRLRB+1fPr0aalSpdavXy8sJBQlra2tN2/ezJeox/fx48fzN3G7devWpEmT6dOnUxakZvAPilBm+uGHH/hNunbt+uWXX7J5PgcL6+GUq5INu5xcfOc/uvr48WNajTqEk+yF7Z0CKx0yX8jWP3XqFEVVW1tbvvzy5ctK8V12X0JU25AhQyi+BwUFiRYpHdGBAwc6d+5sY2NTr169bdu2caZrDwrWnV7FkqWwDaKXwiYp9apwfUqxdOHH5jnTpybY/+eo7F2J0vuu1AzpISsV+vv79+vXb8eOHVQnxXQK8RkZGaVLl2YpX+kN5V49UlpN+P4mJSWJ4ntaWhqdV+++++6GDRv4Qu1UxikA6ATGqUbG6ijEd9AjlTOqk+DhGSGKPqNHjxaW/PjjjxRx+McYhOrXry+8aaoe311dXdkt2ISEBIp3/KdjKWAJ0yH/0AVp1KjRypUr2Tyfg/l6ONWq3Nzc+Mf0w8PD+bDbvHlz4cP9SvlVuBfuxd4vXbpEK1y9epUVspuy9JLluWvXrrFyypFmx3fm888/f++990SFSkfE0DUYZVwKptQbrD3SW/uctviu0qta4rvK3pXIvu8qzWCEh6xUSMm7WrVqo0aNYv+/RDuaOnVq7dq12cpKbyhbkz9S6hMq5584Yv9JJYzvS5YsadGiBf8yt1TGKQDoBMapRsbqKMR30COVM0opvv/yyy9lypTZsGEDewKYIpqDg8OECRNo/ubNm3PmzLl+/Tpbk6JkqVKlhN8ZrxLf//zzT6qH1ZmcnGz14gl7Ckb29vbCdFizZk2W/AIDA8uWLctHK5aDhfWoV9WrVy8/Pz/OlOf69evHh90ePXqMHz+ef+hcNr+K9sK92DuV+Pr6jhw5kmaysrL69+/PfzVNu3btaC+U8Ci8vvHGG3mM78uXL2/VqpWoUPaIaHdxcXFshRMnTtA7wp7xaN++fd++fdlD6tTaoKAg9piTlviu0qta4junvPfffvtN+H8aPNn3XakZsocsW8iZ+srGxsbW1pbVQ289zbNPLXOmtim9oaKOatq0KfsOfqqwS5cuovg+ffr0vHx0VWWcAoBOYJxqZKyOQnwHPVI5o5TiO2f6i061atWys7NzdHSkrDN16lQWdiksUrixtrauXr16lSpVKlasGBAQINxQJb7Pnj17+PDh/Eu6HihXrpynp6erqyulImE6HDNmjLOzM5VT6lqzZg2/CcvBono45aqioqKo/U5OThTEaSs+vlO28/DwoEsUCtmcQn6V7oVP4dHR0d7e3jVq1KhatSolP/axSM70+MR7771H3eXm5sY+Cky1CTfkFPbFXoqsXLmSPxCe7BHR4dA7Re+Xl5cXzfBPzF+7dq1r167UHnd398qVK/v4+LBvRdQS3znlXtUY35X2TueS9AsxOeX3XbYZsocsW8h07NiRoj+b37dvHx2j8BEXpTdU1FERERF0gUH101tARyGK7/xnYc2jMk4BQCcwTjUyVkdZJr4b63l/0D+zz6js7OzExMTY2Fj+sXjeo0eP4uPjk5KSnj17JlqkgoLX3r17hSXp6elxcXHCT75yLzJTZmYmhSr25SEi0no4hao405+PpaYKn6zQSHYvQhRPKa+LS1/Ytm0b/3iGebZv305JUeMR0WqXL1+mHmAXDEL379+PiYlh3+iSW0q9qp107x06dJD9G7Qq77tsM2QPWbZQI/U3lKErEGpeRkaGeIHpCy5Fj5wx169f37Rpk/AZJ1lmj1MAKDAYpxoZq6MsE98Biqrw8HAtf0BUdMtTSmM9eWTGXnbv3r1gwYJff/11yZIl1atX57+exTwUYRs2bOjo6Mh/crdoWLhwoex3Zeb4vusWvePu7u52dnZhYWHiZSahoaG0wqhRo9gnYgEAQD8Q3wEs4JNPPgkODhaXGkF0dPS4ceP69OkzYsQIlb9slSt/mYhLiyLjvu/379+/evWq+v9RHD9+nD1107Jly9WrV+d4Mx4AAAoG4jsAAMijBO/s7Ozg4ODp6eni4oKb8QAAeoD4DgAAivgET2jGw8MDN+MBAAqXZeK7sZ73B/1jWQEAdKtBgwb8nxYGAN1CQtPIWB1lmfhurG/bAf3DGQWgE6GhoXXr1mWR3cnJqX79+k2bNl25cuWdO3cwTgH0D+NUI2N1FOI76BHOKAA94LO7i4tLnTp1/Pz8hM++Y5wC6B/GqUbG6ijEd9AjnFEAhY6ye+3atR0dHfnb7aIVME4B9A/jVCNjdRTiO+gRziiAwsW+9110u10E4xRA/zBONTJWR1kmvhvreX/QP5xRAIUIf3UVoMjAONXIWB1lmfgOAAAAAAAFAPEdAAAAAMAwEN8BAAAAAAwD8R0AAAAAwDAsE9+N9bw/6B/OKAD9wzgF0D+MU42M1VGWie/G+rYd0D+cUQD6h3EKoH8YpxoZq6MQ30GPcEYB6B/GKYD+YZxqZKyOQnwHPcIZBaB/GKcA+odxqpGxOgrxHfQIZxSA/uVqnN66dWvt2rVPnz4VLwCA/JSrcVqcGaujLBPfjfW8P+gfzigA/ZMdp1lZWTPlzJ49++OPP/7000/FGxjTtWvX7t+/Ly59QbS0S5cugYGBguUABUd2nIKUsTrKMvEdAACAPHv2bNgLLi4u7u7ubH7EiBHPnz/v06fPrl27xNsYkK+v77p168SlL4iWNm7ceOPGjS8XAwDkDeI7AADkCwrrFNyFJenp6Q8fPmTzN27coPnbt28fPXr0ypUrrDAmJiYsLCwzM/PlNq9KSkqi9S9cuEAXA8JyehkfH0+LUlNT1QufPHly9uzZyMhI4ZM8aWlp/E6zsrJo/ezsbO5FIzMyMkJCQpKTk9kKt27d8vb2XrRoEa1GR8RXorSUxXdRJQztKzw8nA5ZdC9ftpFCSg0mdMhBQUERERHCbWV3xI7uzp07wcHB1FTZg+XJ9rzGN1F27wBgNsR3AADIF9L43rJly++//57NU6j18/OrX79+8+bNy5QpExgYSC8p+Do7O9O/fMoXGjp0aN26ddu3b+/i4tKsWTMKyqw8Li7Ox8eHNmzXrp2DgwO7wS9beObMmTp16tCuvby8aNfnzp1jNdSsWfPQoUNsnqKwlZUVhVrO1Mjhw4fTmtTysmXLfvfdd1Q4ZcoUGxsbaoOvry81iW3Fky6VrYTExsY2aNDAw8OjTZs21atX379/PytXaqSQbIPZ/284OTm98847dOwdO3ZkKyjtiHZBLaT1mzZtunPnTqV2cso9r+VNVNo7AJgN8R0AAPJFjvGdguCDBw9ofsaMGeXKlVu0aBHNZ2Zmurq6rl27Vrghw99Ep5zau3fvyZMn03x2djZlR9oRuyuclZWVkZEhW0j/enp6Tpw4kVUyatQoiq3sprVsGuZMjaQcfO/ePZrfvn17hQoVWIW5fXhGWgntt1WrVv7+/myd3bt329vbU95VaaSQbIOjoqLKly/PX/ncvXuXM/WP7I44U8MoVQuzuLSdbJFsz7NN1N9Elb0DgNksE9+N9bw/6B/OKAD9y3Gc5hjfly5dyuaPHj1asmRJ/nGLwYMHT5o0ic0LURY8fPjwkiVLZs6c2b17906dOlHhpUuXKLxeu3ZNuKZsYWxsLBXyj7skJCTQy5SUFE4hDXOmRtLuWDmVUDl7RCS38V1aSWJiIs2EhIScfaFSpUonT55UaaSQbINppkyZMgEBAfHx8fyaSjviTA2bP38+v6ZsO9lL2Z5nm6i/iSp7h4KR4zgFxlgdZZn4bqxv2wH9wxkFoH85jtMc4zv/gc6wsLDy5cvzq9FWY8eO5V/yunXr1qRJk+nTp1NkHDhwINVGhRQNra2tRWvKFlK+FBY+fvyYkuWpU6c4hTTMvdpItv7Fixc5SUAXkcZ3aSXUQgq7nV4VGhqq0kghpQYfOHCgc+fONjY29erV27ZtG2fqCtkdca82TPRSeLCcQs+LNpF9E1X2DgUjx3EKjLE6CvEd9AhnFID+5ThOLRvfExISKAiyRzuIv78/C5FJSUkUNOlf4cqyheyW/NWrV9nLmJgY/qWbm9uePXtYeXh4eI7xvXnz5rKP9zCipbKVsBbyt7d5Ko0UUmow8+TJE8rZpUuXpu5S2hGnOb4r9bxoE9k3UWXvUDByHKfAGKujEN9Bj3BGAehfjuPUsvE9OTmZguD58+dpnmKlvb09HyLfeuut3r17P3r0iOYpZbJnZqSF2dnZvr6+I0eOpJmsrKz+/fu3bduW1dCrVy8/Pz/OFHz79euXY3zv0aPH+PHjRd9+wxMtVaqkffv2ffv2ZQ+OU5OCgoKoVSqNFJJtMGXluLg4tsKJEydKlSrFvulFdkec5viu0vNa3kSlvUPByHGcAmOsjkJ8Bz3CGQWgfzmOU8vGdzJhwoRy5cp5enq6urqOGzeOD5EpKSnt2rWztbV1c3Ozs7M7ePCgUmF0dLS3t3eNGjWqVq1KKfnSpUushqioKEdHRycnJwcHh9mzZ+cY3ykce3h4lClT5o033mBLhURLlSqhK4quXbtSC93d3StXruzj48O+6lGpkUKyDab90pHWqlXLy8uLZlasWMFWVtqRxvjOKfe8ljdRae+QF9evX9+0aZPwv1yU5DhOgTFWR1kmvhvreX/QP5xRAPpXKOM0PT09Li5O9vYtRZnY2FjRt5rIFlKgTEtLE5Zwpj84FR8fzz8iUmDu378fExNz+/ZtUblsI4VkG0w9c/nyZeoiyt/Cck55Rxqp9LwWedw7SIWGhtIF1YgRI6QfjRAqlHFqRMbqKMvEdwAAAAAoSJTgnZ2dHR0dfX19V61apeVmPBQNiO8AAAAAhkQJ3s3NrWbNmvXq1aMoP2zYMPWb8VA0IL4DAAAAGBVL8LVr13ZwcKAc7+rqipvxRR7iOwAAmMkBAPSqbt26QUFB4kELRYJl4ruxnvcH/cMZBaB/GKcAehAaGurl5dW6dWuW2h0dHRs0aDBp0iR29x3jVCNjdZRl4ruxvm0H9A9nFID+YZwCFDqW3Rs3bkzB3cnJ6e2332bfkcrDONXIWB2F+A56hDMKQP8wTgEKF2X3unXrim63i2CcamSsjkJ8Bz3CGQWgfxinAIWIfe/7+++/L7rdLoJxqpGxOgrxHfQIZxSA/mGcAhQW/NVVizNWR1kmvhvreX/QP5xRAPqHcQqgfxinGhmroywT3wEAAAAAoAAgvgMAAAAAGAbiOwAAAACAYSC+AwAAAAAYhmXiu7Ge9wf9wxkFoH8YpwD6h3GqkbE6yjLx3VjftgP6hzMKQP8wTgH0D+NUI2N1FOI76BHOKAD9M8Q4fW4iLgUoNgwxTvXAWB2F+A56hDMKQP8KZpzGx8fPnj17xYoVz549Ey/T4MKFCw0aNLh69ap4QTEwatSoKVOmiEvNkpqaumHDBlwIGVHBjNMiwFgdhfgOeoQzCkD/zBinWVlZM+VQQBev+kJSUlJGRsaQIUOCg4PFy3Ly2WefDRw4cM+ePcuXLxcv05lr167dv39fXCoQERHRrVs3camcyZMnU3dFRkZOmjQpOztbvDj3nj592qpVq02bNvEl//jHP44cOSJYBfTLjHFaPBmroywT3431vD/oH84oAP0zY5w+e/Zs2AsuLi7u7u5sfsSIEeJVBbZt2zZ16lRxaU6WLVvm7+//22+/UZYVL9MfX1/fdevWiUsFOnTosGXLFnGpBB01xfdff/110KBB4mXmosuAWbNmCUt+//13Hx8fYQnolhnjtHgyVkdZJr4DAADkSp8+fSi4C0tu3Ljx8OHDO3fuBAcHp6ens8KkpKSjR49euHBB9skNWvnWrVvCkqtXrz5+/Jgz3ekPDw8PCwtTv6utVD+9jI+Pp0WpqanqhU+ePDl79mxkZOTTp0/5wrS0tMzMTDZPLaH12Y1wdowZGRkhISHJyclsBToEb2/vRYsW0Wr8gQudP3/ezs6Or1C2Ekb2qJUaI6L96Gjz2rVr05p8CQAUJMR3AAAoBNL43rhx46FDhzo5OTVt2nTnzp1UQi/r1q3bvn17FxeXZs2aiZI6WbNmjZubG/+SUnipUqUorcbGxjZo0MDDw6NNmzbVq1ffv3+/YKOXlOqPi4vz8fFxdnZu166dg4PDrl27lArPnDlTp04darmXl1f9+vXPnTvHaqhZs+ahQ4fYPKVhKysrutLgTMc4fPhwWrNly5Zly5b97rvvqHDKlCk2NjbUBl9fX2oS20rI39+/b9++/EvZSojSUSs1RihXR0dGjBgxevTol9sDQAFCfAcAgEIgG98pegozOn8b+Pnz57179548eTK/iLl37x4F37CwMPZy4sSJ7777bnZ2dqtWrSjyssLdu3fb29s/fPjw5WYvyNZPmzdv3pzaxu7HZ2VlZWRkyBbSv56enrRTVsmoUaPowoPd2FZKzHSMlJKp2TS/ffv2ChUqsArVH56hC4yAgAD+pWwlKket1Bhebo+OrFq1iprB1wAABQnxHQAACoFsfJ8/f76whMLi4cOHlyxZMnPmzO7du3fq1Em4lBk8eDAlS84UOp2cnH755ZfExERKqCEhIWdfqFSp0smTJ8VbKtR/6dIl2vzatWvCNWULY2NjqZB/3CUhIYFepqSkcMqJmY6RdsfKqYTKr1y5wuUU3+mq5ocffuBfylaictRKjeHl9uhIYGBg9erVX64NAAXIMvHdWM/7g/7hjALQvzyOU9n4vnHjRmFJt27dmjRpMn369KVLlw4cOLBly5bCpQzl78qVK2dmZu7fv79KlSpPnjyhCFuyZMlOrwoNDRVvqVA/bW5tbS1aU7bw6NGjwsLHjx9TwD116hSnnJiFx8jWv3jxIpdTfPfy8lq1ahX/UrYSlaNWagwvt0fHme76Ozg48EtBt/I4TosPY3WUZeK7sb5tB/QPZxSA/uVxnOYY3xMSEiiPskdEONPz37LxPTs7u06dOtu2bRswYMCYMWM406dR+bvaKpTqZ5vTv8KVZQvZTWv+S+VjYmL4l25ubnv27GHl4eHhOcb35s2br127lpVLdenS5auvvuJfylaictRKjeHl9ujIt99+26JFi5drg17lcZwWH8bqKMR30COcUQD6l8dxmmN8T05Oprx4/vx5mqd4am9vLxvfyRdffNG2bdty5cqdOXOGlbRv375v374PHjzgTPk+KCgoKyvrlW1U63/rrbd69+796NEjzvR4PXuqRFpINfv6+o4cOZJmqP7+/ftTM1gNvXr18vPz40zf3NKvX78c43uPHj3Gjx8v++06JCAgQPil70qVKB21UmOEcnV0ZMiQIRMmTHi5PehVHsdp8WGsjkJ8Bz3CGQWgf1rGKcXETZs2Xb9+XbxAQ3wnFBAplHt6erq6uo4bN04pvlN4pUjq5eXFl1D67Nq1q62trbu7e+XKlX18fITfe8hTqj8lJaVdu3a0uZubm52d3cGDB5UKo6Ojvb29a9SoUbVqVQq7ly5dYjVERUU5Ojo6OTk5ODjMnj07x/h+4sQJDw+PMmXKvPHGG2yp0OXLl2m//HdBKlWidNRKjRHK1dFRtVQSERHxShWgS1rGKXBG6yjEd9AjnFEA+qc+Tk+dOjVmzBhKxrIPnWuXnp4eFxcnvXeuBeXdmJiY27dvixcIqNRPGTc2Nlb0lTWyhZSb09LShCWc6W9UxcfH8w/n5FHfvn2XLVsmLpUje9QaG6Px6LZu3dq+fXthCeiW+jgFnrE6yjLx3VjP+4P+4YwC0D/ZcUr5b/Xq1W3atHFycqpdu/axY8fEa4BZEhIS/vWvf4lLC8n48ePPnj0rLgVdkh2nIGWsjrJMfAcAgGKO3W6vX79+q1atKLjXqVMH2R0AID8gvgMAgPn42+3e3t5NmjRxMEF2BwDIP4jvAABgpqCgIFdXV8rrtWrVYsGd1KxZ89tvv124cCHNs8dJMY95zBfKPJuBogfxHQAAzHf79u1JkyZRiHd0dHQw8TTJ4ydWAQBAiWXiu7Ge9wf9wxkFoH+icXrgwIG3336bhXhK80jwAHqA36caGaujLBPf8b8zYFk4owD0T3acCm/Gu7i4IMEDFC7ZcQpSxuooxHfQI5xRAPqnPk4PHDjQtWtXDw8PJHiAQqQ+ToFnrI5CfAc9whkFoH9axqnKX10FgAKgZZwCZ7SOQnwHPcIZBaB/GKcA+odxqpGxOsoy8d1Yz/uD/uGMAtA/jFMA/cM41chYHWWZ+A4AAAAAAAUA8R0AAAAAwDAQ3wEAAAAADAPxHQAAAADAMCwT3431vD/oH84oAP3DOAXQP4xTjYzVUZaJ78b6th3QP5xRAPpn2XGakZHx559/Pnv2TLwAAPLAsuO0CDNWRyG+gx7hjALQP8uO07lz565YsaJr167iBVCkhYeH//bbb+LSvMmPOo3LsuO0CDNWRyG+gx7hjALQP5VxumXLloMHD/IvT548OWvWrKtXr9J8z549t27d+nJVjps8efKQIUPu378/bty4DRs2CBdpdO3aNdpcXFqkpaenOzs73759W7xAoFC6RbTTLl26BAYGCpa/gk6JevXqRUZG8iXS0yO3pHXmKFdt1hW+u1T6TWWcgpCxOgrxHfQIZxSA/qmM006dOo0dO5bNU463tbVdunQpexkQEPDHH3/way5btozi+6+//jpo0KDQ0FC+PFd8fX3XrVsnLi3S0tLSrKys/vrrL/ECgULpFtFOGzduvHHjxpeLBZ4/f96xY8fff/9dWCg6PXJLts4caW+z3vDd1bJly++//1682ERlnIKQsTrKMvHdWM/7g/7hjALQP5Vxysf3wMBAGxub9evX84vS09MfPnzIv8zKygoPDw8LCxPe/rxx4watc/v27aNHj165coUVxsTE0GqZmZn8asytW7e8vb0XLVqUmppKlXMvNr9z505wcDArIUlJSVTbhQsXKOG9sv0LbKubN2/SVrSycJHStvHx8UFBQREREU+fPlUqpOPiQzbVT41k81QVzbMKnzx5cvbs2cjISGE9skfBXiYmJuYY383uFrZaRkZGSEhIcnIyXyFz796948ePUwOE7edJd8qisGxt0l1zktND6tGjR/wpQR4/fixshmydnKm36X2hRXz/83LVZup2/gxkPXD37t327duzl0q7YPJ4qsseGt9dKvFdZZyCkLE6yjLxHQAAgMfiO2Ugyu47duwQLhLmjNjY2AYNGnh4eLRp06Z69er79+9n5ZSf/Pz86tev37x58zJlytA1AL2kjOXs7Ez/iuLdlClTaC8uLi6+vr5Dhw5lm9OMk5NT06ZNd+7cSSX0sm7duhSzaLVmzZpRYhPWwNBWgwYNohWoMeXKlZs/fz4rl92WIlSfPn1oF++8846Pj0/Hjh2VCvfu3UvNZlVNnDiRMnd0dDTNHzt2rGrVqrTJmTNn6tSpQ3v38vKiQz537hxbWXoUlN4qVapEh+nu7j5y5Ej1+G52t9Bqw4cPp5bQO1W2bNnvvvuOr5Nyv52dHb0p9JbJNkB2p7K1ye6aU42hDF1+0CbffPMNe9mtW7devXqxeaU64+Li6O2gd6Fdu3YODg67du1i5Yz2NhOqhD9L2RVU9+7dqQ3qu+DyfKorHRrfXTn2GxQxiO8AAGBhFN9dXV3Lly9/4MAB0SI+Z2RnZ7dq1crf35+V7969297enuUVyjSUUR48eEDzM2bMoDC9aNEims/MzKRq165d+7I6E+nDD5SThBldeM+7d+/ekydP5hfxaCtKUexp8pCQkNKlSyckJHAK20ZFRdHR8enq7t27SoX37t2ztra+dOkSZ2pno0aNvv32W5qfNm3a+++/n5WV5enpSbGebTJq1CjK1tQznOQoaO/0cubMmZyp6wYMGCBNzyLmdQutRkmUmk3z27dvr1ChArvd++zZM0qQCxYs4EwNGDJkiGwDpDuVrU1215y2GHrq1Cnq59OnT3/99dcUZynQs3LZOqmplIyHDRvG9ksdnpGR8aKm/9HYZk4uvq9atSolJUV9F3k/1WUPjUN8L8YQ3wEAwMIovru5uVEC3rZtm2gRnzMSExMp/VBQPvtCpUqVTp48yZkyDf+s/NGjR0uWLMk/SDB48OBJkya9qOx/pPGLv3fOUH46fPjwkiVLKP52796dmidcytBWs2bN4l9Sney2q+y2FKfKlCkTEBAQHx/PbyJbSFq3bk0hjy4MKleuvGnTph49elBhmzZtVqxYERsbS53AP8pCFwz0kuIgJzmKmJgYWsQ/dxEWFiabnoXM6xZajUrYCpSMaS/soY4///yzRIkSjx49YovOnDkj2wDpTmVrk901pzmGUsatWbMmhXiK8nyhbJ104UQ7vXbt2suNJTS2mZOL79QDOe4i76e67KFxiO/FGOI7AABYGHt45ocffqAE//PPPwsX8TmD0gyFlU6vYp9ebSz47CDlVEpp/ObDhg3jPxTLk8Yv0UcPu3Xr1qRJk+nTp1NUGjhwILVBuJShrajB/MuuXbt++eWXnPK2Bw4c6Ny5s42NTb169firFNlCf3//fv367dixg+qkpE4hPiMjg3qGPSptbW3NVuNMT3JTzmORVHQUtKatrS3/MikpSTY9C5nXLcLVWHsuXrzImd4vYQMuX74s2wCVnQprk901pzmGUp6mKyW6BBIWytZJzRb2sCyNbeYU4nuOu8j7qS57aBziezFmmfhurOf9Qf9wRgHon8o47fTio6sUKShm/fLLL/wiPmewACr8GCJPY6bhNW/eXPhEjSinJiQkUHhiz0JwpjCtFN/5xxtIo0aNVq5cmeO2T548oURFWZxfR1pIybtatWqjRo1avHgxZ9rR1KlTa9euzb24N8y+UpN7cYudvRQdBSVIWsQ/+kKJUDY9C5nXLUrhlb1f/D1mulCRbYDKTvnalHbNaYuhWVlZb775JqVY6sNly5axQqU6WbNFn0UW0dJm9rJhw4bsYwOc6Vkp1gM57iKPp7rSoXHa4rvKOAUhY3WUZeK7sb5tB/QPZxSA/qmMUz6+k9WrV1OC5z/AKswZ7du379u3L3vwNzs7OygoiJIZpy3TCPXo0WP8+PH8A8qinJqcnEzh6fz585wpBNvb2yvF95o1a7KMFRgYWLZsWYrRSttSIIuLi2Mb0m/9UqVK3b9/X7aQM6V5GxsbW1tbVg81lebZpyTpqH19fUeOHEkzdOz9+/dv27Ytq0F0FKRp06bjxo3jTBV26dKFT8+//fab7NP85nWLSnht165dv3796BKCjvSNN96Qje8qO+VrU9o19+rpoXRcX3755euvv/7o0aPjx4/TucG+4l2lzrfeeqt3797ssR8KwdKnXLS0mb2k03XIkCH0Zj19+vSDDz7geyDHXeTlVFc5NC3xXWWcgpCxOgrxHfQIZxSA/qmMU2F8514keHbbUpgzKOV07dqVsqy7u3vlypV9fHzYNydqyTRClJU9PDxoF5QpOUlOJRMmTChXrpynp6erqyslYKX4PmbMGGdnZ1qH0vaaNWtYuey2tEc7O7tatWp5eXnRzIoVK5QKmY4dO1LqYvP79u2jNMb/garo6Ghvb+8aNWpUrVqVojz7kCsndxQRERF0gUH1Ozo6Tp06lc+ONN+8eXPhmox53aISXtPS0t577z16v9zc3Og9LVGiBK3A18ao7FRYm+yuuVdPD9njOnz4cIUKFdi395DZs2fTycMuk5TqTElJoQsP1mx6X4R/UIzR2GZCGZreAup/BweHgIAA/i3IcRd5PNWVDg3x3YKM1VGI76BHOKMA9M9S45SyV0xMjPofEM279PT0uLg4dstTFgtSmZmZFA3Zl8bwZLell5cvX6ZyYYSVLdSC4h2FY3GpBGU+ap7oi006dOig9Bc3c0T7PXLkyLNnz8QLcrJt2zb2/I/ZZHtVyIzjUqnzzp07sbGx6l8qrwX11enTp2UflclxF3k51VUOTZ2lxmmRZ6yOQnwHPcIZBaB/RWycSm9OGwW9EfyDH7nFHqnXeLGxe/fuBQsW/Prrr0uWLKlevTr/lSn5JC/Hla/Gjh07bNgwcaleFbFxmn+M1VGWie/Get4f9A9nFID+FbFx+sknnwQHB4tLi7p79+6tW7dO4z3d6OjocePG9enTZ8SIEXv27BEvLjZOnTploJPfQE0tXMbqKMvEdwAAAAAAKACI7wAAYCaHwiZuEABAMYD4DgAAhoT4DgDFE+I7AAAYEuI7ABRPlonvxnreH/QPZxSA/hX6OEV8B8hRoY9TozBWR1kmvhvr23ZA/3BGAehfoY9TxHeAHBX6ODUKY3UU4jvoEc4oAP0r9HGK+A6Qo0Ifp0ZhrI5CfAc9whkFoH+FPk4R3wFyVOjj1CiM1VGI76BHOKMA9K/QxyniO0COCn2cGoWxOsoy8d1Yz/uD/uGMAtA/LeP0zp07mzZtun79uniBJSC+A+RIyzgFzmgdZZn4DgAAIHTq1KkxY8Z4enqGhoaKl1kI4jsAFE+I7wAAYDF37txZvXr13//+dycnp9q1awcFBYnXsBzEdwAonhDfAQDAAtjt9gYNGnTo0MHd3b1WrVqHDh0Sr2RRiO8AUDwhvgMAgPn42+2+vr7t2rWj1E6pugCyO4f4DgDFlWXiu7Ge9wf9wxkFoH80ToOCghwKlbhNAPAq/D7VyFgdZZn4bqxv2wH9wxkFoH9snF65cmX48OHOzs58pG7evHnDhg3z7xOrAKAdfp9qZKyOQnwHPcIZBaB/onG6efPmVq1asQT/+uuvI8ED6AF+n2pkrI5CfAc9whkFoH+y45S/Ge/o6Fi3bl0keIDCJTtOQcpYHYX4DnqEMwpA/9TH6ebNmzt16uTh4YEED1CI1Mcp8IzVUZaJ78Z63h/0D2cUgP5pGaf5+ldXASBHWsYpcEbrKMvEdwAAAAAAKACI7wAAAAAAhoH4DgAAAABgGIjvAAAAAACGYZn4bqzn/UH/cEYB6B/GKYD+YZxqZKyOskx8N9a37YD+4YwC0D+MUwD9wzjVyFgdhfgOeoQzCkD/ME4B9A/jVCNjdRTiO+gRzigA/cM4BdA/jFONjNVRiO+Qs3Pnzo0pWG3bthUX5VlAQMA3AGA5vXr1EhcBgM5gnGqk845KSUkRBjPLxHdjPe8PuUXZ1woAAAAACsOSJUuEwcwy8R2KNhbfu3btGmBMw4cPp/Z//PHHSwAAAACMo2fPnojvYA4W3ykH3zamPXv2UPuDg4PFBwYAAACgY9988w3iO5gD8R22bNkyffr0rKws8QIAAADIN4jvYCbLxvcmTZrUrl1748aN7GVcXFxkZGRCQsKra1mSGfH92bNnG1+4du0alVBypUJ+Bfby8ePHtALV/3JLgcTExBYtWowdO1a8IM8yMzMHDRpE74h4Qe5RVSqHkJaWdubMmbNnz77zzjtJSUnixUajfrCy5s2b9+jRo+Tk5DVr1oiX5Y0ZjdGVzZs3b926lWauX7/ODxY6KPF6AACQB/kY3/HR1aLNsvG9evXqVNvKlSvZy44dO9LLf/3rX6+uZUlmxPf79+/TJuXKlXN3d//jjz+opFSpUlTy119/0fzcuXNpvmHDhhcuXKAZWke8PcdlZ2e/9dZbP/zwQ9u2bXfu3ClenHsffPBBp06dnj59yl5evXrVzc3twIEDr66libAqOiKlQ6BYRsdIlx++vr737t0TL9YxUV/xVA5WCZ2odevWrV+/vnldrcKMxugKjYiyZcvSzKlTp+goaLDwAwQA9AMJTSPddlQ+xnd8cWTRZkZ8p9/ip0+f3rdv365duyIiIoSLhPE9Li7uzTffpJcDBw78888/Y2JihGtaitnx/Y033uBL+Pg+c+ZMmnn99ddv3LghTGA3b96krfj1Hz16FBUVddUkOjqaL3/27Bl7BEW0PmfaaUZGBme6tS96TIVe2tvb074ePHjA/ydAWlra+fPnOUGdycnJjx8/ZiUpKSnPnz8X1PE/oqpUDiE1NfXMmTOJiYm0l/T0dLat6L8gZB+nodxPWz18+FC8wLToypUr6iV05UOdJmwJf4BK88KWy/YVo3KwnNx+OVPzEhISNB4Lj7qLeoAaICwUdQu1LSwsLDIyUrgOv4g/LvaG8mT7VnZ3wkI6E6hOOkA2L+1ATuHw+RXoZGCXcPxZSiOiTJky/JpsICO+A+gNEppGuu0oxHcwkxnxvUmTJlYClIMpGbBFwvju4eEhXK1KlSqv1GIhFozvrCsaN27MYgqLg87Ozl27dqWZ0qVLb9myha2/YcOGatWqsePq0KEDy3kq69NVQUkTPz8/2lf58uVf7Pn/1a9fn1XF8FVREqUQz+rs0qULzdSoUYMumeglzbu6ulLaE9YjrUqlSRUrVmTrlChRom/fvk+fPh00aBC9PHz4MGd6NMjq1S5S2oqV//LLLzVr1mSLOnbsKFvCyfXbxYsXab5Zs2acKU3SPKVzTrkzpX3FU9qEk9svl5tj4VHgbtGiBb/Vv//9b1YurUrp7jvfyM6dO9PMa6+9tn79erZIWons7qSFNHhpntVDe6TYTZeXoaGhVEjvKadw+Kwl9erVe/fdd2nm+++/nzFjBjtLhw4divgOYAhIaBrptqMQ38FMZsT3Tz/99LvvvgsMDFy3bp2Liwtt/sUXX7BFwvg+d+5cCgf0kuL+hAkT/P39X6nFQtgXR7JnYDRSiu+kQYMGt27dYoUs35CxY8fOmTPH6kUai4qKovUp4f3666+TJk2icsrWKuuHh4fTvKOjI/XYqFGjaF4U3ymRV6pUicrXrl27ceNGvio+vluZepgdKSW2RYsW9erVi+ZpL8J6pFUpNYksXbqUGhYdHT1gwAAqp7fy1KlTNNO/f3/uxRNE0ifCpVtR4Z9//klZmdIn7fTAgQN0bkhLOIV+Y/G9ZcuWnFx8l7Zc2lc8pU1k98tpPhbhLqiQ1vzqq69iY2P37t27bds2Vi6tSj2+E7qi27x5s42NTbly5dhlmLQS2d1JC9kbR1eGVI+V6Qw5cuQI6wFaWenw+Za899579JuDIj7NOzg40Fk6evRomkd8B9A/JDSNdNtRiO9gJjPie2pq6qpVqyZPnvzxxx83btyYJQC2qICffWc5Y9y4ceKjUqUU3+lfa2trPpOxfFOtWjX2WAItorDFmUYElX/++eec6VmO1157jYIO/6SKdH02OD/77DOaf/DggZUkvhP2QAj/KIUovrNEe+zYMasXN6p/+uknmv/oo4+ElTDCqpSaRC8XLFjw1ltvNWzYkBIbrTNx4kQqb9GiBR0LbdW0aVNbW1vp8yeyW3399dc0z9+Kli3hFPqNMqiVcnyXtpyT9BVPaRPZ/T59+lTjsQiFhITQ0sqVK7/99ttU4eXLlzmFblGP7+wYSZ8+fejlnj17ZCuR3Z20kA6KLmnoUplOXTr81q1bT5s2jd3dT05Olj18/nSlCxX2gVT65UEv6TKbezFAEN8B9A8JTSPddlQ+xnfdPu8PFpHb+B4fH1+rVi3apGrVqpTdWV6nKMyWFmR8Ny+7c8rx/ccff6RwQ/MUjjlBhmbrvGbCSeJgGRPRg+bC9b/77jsr0y1hvk5pfGeJTSm+szrDwsJovlOnTtyL+D5y5EhhJYywKqUm0ZFSebt27Xbu3MlOANa8TZs20Tzr2A8//FBQ6/9T2koaeaUlnEK/0elEhb6+vpzpcX+rV+O7tOWcpK94SpvI7pfdw9ZyLCLBwcG0tEOHDlam55c4hW5Rj+90COwlH99lK+Hkdidb2KNHD5rv1q1br169pkyZ0rZt2woVKrBFsocvPV0XL15ML//zn/9wLwYI++gqg/gOoE9IaBrptqPyMb5D0Zbb+L5ixQorU3ansEUv+/bta6Uc39ljtX5+fvzmlmJ2dueU4zulk/3791NqoZebN29WioORkZGipxE6d+7MKcfHixcvWltbV6pUad68eewRdml8b9iwIXsX2PfY5CW+C6tSahJ7NmbAgAEREREtW7a0ehEWnzx5wu5tE+kPO6Wtzp8/zz9wcvDgQbpckZZwCv326NEj6hxqFa35/vvvW2mI76K+4iltIrtf7cci3MXJkyfXrFkTaVKjRg0bG5vs7GzZqtTju5Xp4ZktW7bwD8/IViK7O9nCpUuXsmrpN8GBAwfYPDs9ZA+fbwnfQtqv1asPzwjPUsR3AID8gPgOZsptfGc3aClyTZ8+ffLkyTRjpRzf2aPednZ2/fr1o7zyspa8yUt251TjO81T+qEEX7JkyWXLlgnzjTBBrlu3ji5grEzatWuXkpLCSfKQcH3qtFq1ajk5OVEnlChRolq1aqyct3HjRpab2eZ5ie/CqpSadPXq1QYNGliZnsHo37+/1YvwSqZOnSrcREhlq61btzo6Opr6438f95SWcAr9Nm3aNCvTk0sfffSRlYb4Luornsom0v3m6lh4dHVna2vLFtEM+4ErW5V6fOc/i8z+H0CpEtndyRayLzkl4eHhdHqzUfnzzz+znUoPn2+JsIX0Rih9wBrxHQAgPyC+g5lyG9/pV3i3bt1YFGjcuLH63feoqKhWrVpRiqLC9u3bv6wlD/KY3bkX8b1ixYrU7JMnT4oXa5OdnX3lyhWN35h+/Phx9oTx+vXrrV5E8MKVlZWVmpoq/fbJzZs3UwuVHhNU2oqhiw3Rly1KS2T77datWxp70mzS/dKxHDp0KCQkhH1Vooi05QwdO5UnJSU9efKEL1TvFiFhaL558+ajR4/4RbKVyO5OtlCd9PBl0Qqi3oiIiKBhwr4VB/EdAMCyEN/BTLmN70x0dHR4eLi4NP/lPbsT9rFFhn0cML9RALK2tq5QoYKV6av6YmNjxWvog4+PT6lSpVxcXHLMeUUDe/Q8V986mkfSe946l5KSwg8W4cUGAADkXT7Gd+kjsFCUmBffC4VFsnuhuHbt2u7du3/66ac//vhD9MeGdGXr1q0///wzdbV4QRF1/PhxelNu3LghXpBv6NJx//79ufqe08KCn/wA+odxqpFuOyof47vSf6ND0WCU+G7c7A5gRPjJD6B/GKca6bajEN/BTCy+Dx8+fI+Osb9YhOwOUGDwkx9A/zBONdJtRyG+g5lYfNc/ZHeAgoSf/AD6h3GqkW47CvEdzBQQEECnzscffxxcUEaPHi0uyokhnhUGKErwkx9A/zBONdJtR+VjfNft8/5gEbKnTr7CGQWgfxinAPqHcaqRbjtKNoNZJr5D0SZ76gAAAABAvpLNYIjvkDPZUwcAAAAA8pVsBkN8h5zJnjoAAAAAkK9kMxjiO+RM9tTRuf3798+cOfP69et8SWRk5Keffjps2LBdu3bxhQ8fPvzjjz8WL148e/ZsvlBqy5YtBw8eFJfmQc+ePbdu3SqdF0pPT3d2dr6db38gKY/1X7t27f79+/xLpaMQ0rIOAAAA8GQzmGXiu26f9weLkD118lUez6jk5GR7e3tq89mzZ1nJ6dOny5YtS/F9zpw5lStXXrRoESsfM2ZM1apVvby8SpUq9XJ7iU6dOo0dO1ZcmgctW7b8/vvv2XxAQIDs1+akpaXRIfz111/iBRaSx/p9fX3XrVvHv1Q6CiHhUUMRkMdxCgAFAONUI912lGwGs0x81+237YBFyJ46+SqPZ1Tnzp2pBmF8p5KhQ4ey+Y0bN1asWPHx48c0z+4f//rrrxrj+40bNx4+fJiRkRESEkIXCfwKd+7cuXXr1ssNOO7q1atsF0lJSUePHr1w4cLz58/5pcIgm56eTnXyi6iq4ODgxMRElXhNVcXHx1O1qamprIQ1jG1LFVJJVlZWeHh4WFiY8B45p1q/7Cayh0wH6+3tTVdB1AC2O9FR5HjU1P6goKCIiIinT5/yK4Cx5HGcAkABwDjVSLcdJZvBEN8hZ7KnTr7Kyxm1bt06Cussm7L4Tqn0tdde2717N1uBsmmJEiUoXPKbaI/vjRs3/j/27gQui2r/HzhuCLjhyqaAC5uUobiV2k3tul13M63sXo3rVeN11ay0Rc17Sa1Mf/ePtrlmmtkrc+vezOwiZInkC9wKEBURBBQX3BCQZf7f33N+TOPMeZ4ZYQYP+Hm/evWaObOd5/g9j59nHB6mTp3asWNHSqIuLi6rVq1iO6xbty4wMFDen2IrnZD6QJ8Z2rdvP2DAAH9//+7du8sRXxlklcvUq2bNmoWHhwcFBU2bNo0b30+ePBkWFubn59e/f39PT0/2LBB1jK7l7e3drVu37du3p6amBgQEBAcH9+3bt3Xr1nv27GHHOji/vUO4L/mNN95wc3OjF0WnYp+LlK/C8aumQD9u3Djq6h//+Ed6IYMGDWJbocapyjwFgOqBeWqQsAPFzWCI76CPWzqWqnRFUWJu27ZtRkaGMr5nZ2fTclJSkrxb8+bNP/vsM3n1nuI7Jc4bN27Q8rZt25o0acLuLlMLxdn4+Hi2/9y5c4cNG0YL8t1x2m3s2LGvv/46W+XGd9qH0nNUVBQtl5eXT5w4URvfqb1Hjx4RERHsuvTJ5Nq1a5KtY3QsC8q0T+/evRcsWMAOoc8tHh4eBQUFDs5v7xB2Zu5LVj08o3xFjl/1sWPHGjVqJN+qv379OluAGqfS8xQAqg3mqUHCDhQ3gyG+gz5u6Viq0hU1evRo6q1U8WA3i+9nz56l5eTkZHk3b2/vtWvXyqv3FN/lccjPz6fTnj9/nq1OmjRp+vTpki1S0/m/+uoryRaLf/jhBzqEQvPIkSPpPGxnbnxPSUmhE8oPrtCHAW18P336NDXm5OQoGyVbx9577z22nJ6eTvvExcUdqdCsWbNDhw45OL+9Q9iZuS/ZQXx3/Kop3Ds7Oy9ZsiQtLU0+HGqiSs9TAKg2mKcGCTtQ3AxmTnwX9nl/MAW3dCxVuYrat29f69atd+3aRXF806ZN1Ofo6GhK7Sx0Ks/p4uKybds2efWe4judmTUWFhbSaU+dOsVWKbC6u7sXFRXt2bOnRYsWxcXF1DhixIiuXbsuWrSIevLss89SfmU7c+N7bGxs48aNWaNke3xcG98pYdevX1/Zwig7RvvUrVt38N0OHjzo4Pz2DlGdWfmSHcR33Ve9d+/eIUOGuLm5dejQ4csvv5RPAjVL5eYpAFQnzFODhB0obgYzJ75D7cYtHQFRKOxToWfPntTnsLAw9qy2r6/vypUr2W4U6GmT8tavKfG9vLycrkJhdOLEiZGRkdRy5swZysTssROyYMECbZBVLtOp6ITyk+IUqbXxnWVu+r+yUbq7Y2wf+Z8FZA7Ob+8Qyf5L7tGjx/r16+Xd5Fdh8FUT+oRD+b5BgwbyzgAAAKDEzWCI76CPWzqCUz48Q+bPnx8UFHT16tWysrJJkyY9+uijrL2oqIjy6+eff07x/ZINpfDfz1LBSHwnb775Zr9+/VxdXQ8fPizZvr+Sdjhx4oRki84eHh7cIKtc7tat2+zZsyVbtB06dKg2vpMnnnhi7Nixt2/flmzP3LMHaZQdIwMGDBg/fvytW7ck2+eKmJiY0tJSyeH57R1i7yWPGjVqzpw58hfLyK9C91XTR4WTJ0+ylp9//plGXvXdOAAAAMBwMxjiO+jjlo7gVPGdcifFTQrWLVq0CAkJkTM3pUmnu2njsmQ4vrPb26GhoXLLyy+/TBelK3bq1Ilys258T0pK8vHxadu2rZeX18KFC7n9yczM7N+/f+PGjQMDA5s3b85+n5QqvlOmHz58OO1DH1rc3d3DwsLY9zM6OL+9Q+y9ZErewcHBzs7Offr0ke5+FY5fNR1I3aY+0EDRwkcffcS2AgAAgAo3gyG+gz5u6dxf+fn5mzdvVv5SVSOys7PT0tK499etk5eXd/LkSXYn2wgKzcnJyez7ZBygEUhNTVV+1brWzZs3U1JSVL9X1fH5uYdUguNXTe1nz56lHdhX4wMAAAAXN4OZE9+Ffd4fTMEtHUs5qKj4+Phx48YFBgayH6wEgPvFwTwFAEFgnhok7EBxM5g58V3Yb9sBU3BLx1LaisrPz1++fHloaKiXl5evry+yO8B9p52nACAazFODhB0obgZDfAd93NKxlLKi4uPjx44dyx7X9vT07NixI7I7gAjwzg8gPsxTg4QdKG4GQ3wHfdzSsRRVlHy7nYK7ZwVkdwBx4J0fQHyYpwYJO1DcDIb4Dvq4pWOpyMjIgIAAyusdOnSQs7uXl9c777xDxUbLrOSwjGUs38dltgoAIsM8NUjYgeJmMHPiu7DP+4MpuKVjKaqo/Pz81atX9+vXr2vXro899pinjY+Pz+7du9V7A8D9gHd+APFhnhok7EBxM5g58R1qN27pVJuEhITIyMhOnTo9/vjjHTp0QIIHAACABwQ3gyG+gz5u6VQz+Wa8t7d327ZtkeABAACg1uNmMMR30MctnfuF3YwPDg7Gz7ACAABA7cbNYIjvoI9bOvdX5X7rKgAAAEANws1g5sR3YZ/3B1NwS8dSqCgA8WGeAogP89QgYQeKm8HMie/CftsOmIJbOpZCRQGID/MUQHyYpwYJO1DcDIb4Dvq4pWMpVBSA+DBPAcSHeWqQsAPFzWCI76CPlQ5ZtGgRrdL/sYxlLGMZy1jGMpZrzfKgQYO47fd9GfEdKklbOiUlJZsq5OTkyO2lpaW0qby8XG6pHNMrqqioiLqq/brJe2rnNqrMnTt32rRpNA7qDRUuXLggDx2dUL0ZoOYwfZ4CgOkwTw0SdqC0GUwyK74L+7w/mEJbOjdv3qQWV1fXoKCgAwcOsMbk5GQnm3Hjxsl7Vk6lK+qZZ54ZPHjwnTt3VO2XLl2ijlFvq9LObVTasmVLWFjY1atX1RsUEhIS6Aw0dHQqOqF6M0DNUel5CgDVBvPUIGEHSpvBJLPiO9Ru2tJh8b1Pnz6Kvf73xjM11qlTx9nZ+cqVK8pNku2u8/nz5x23lJeXZ2dn08mVjSUlJfLNbHlZXrh8+bK8P7V4eHhQH27dukU7VJzgfymTNx1SWFjI2mm3+Pj4o0ePKneWNEmd/atCXl6e8iSqflLn9+zZk5WVpWyUbC8zPT29oKBA2fiHP/wB8R0AAAAc02YwCfEdjNCWjja+l5WVeXt7U3B/8cUXadMHH3wgb/rqq698fHycbAYNGsRtIZ999lmrVq1Y48CBA1myP3XqFK12795dskVtWqaAzrK1n5/f8OHDaaFBgwZbtmyhHTp27MgOZ+QOSBVxnA4ZMmQILTRs2PDTTz+V27U31JXt7733Hi0PHTqUojk7ieq6kp3Ok6ZNm7JG+lQzfvx4+Z8FEN8BAABAlzaDSYjvYIS2dLTx/bvvvqOWkSNHnjhxghZ69erF2n/99VeKuZRi169fv3fv3lWrVmlbaLdjx47Vq1ePMv0333wzb948J1tcliriOzubKr6TWbNmLV261KkiZ+/cubNZs2a0SmfetGmT3DepIo6TqKiozz//3M3NzdXV9cKFC7rx/d1336WFp59+mpK3veva6zyJjo5OTExMTk6eOHEitW/YsIG1I74DAACALm0GkxDfwQht6WjjO4unX3zxBS2HhobSckpKCi0vX76cll966SV5T22LZPuREWp87bXXJNuTKg0bNnR2dqa87iC+t2rViv2MbP369SmOs/Owh2fkZ2Nk7BDaylbHjRtHq7t373Yc3+nM9P+xY8eWlZXJjdrr2us87bZs2bInnniic+fOnp6etM/cuXPZ+RHfAQAAQJc2g0lmxXdhn/cHU2hLRxXfr127xn4Wk+Jso0aNWOp9/fXXJV5Y17ZImgTcoEEDloDPnDlD7eHh4dSem5vrpIjvcuZuaMOWWUq2F99pK1s1GN+bN2/etGlTyuu//vqr3Ki9rqrzzjbU+Y0bN1J7//79t2/fHhkZ6WS7bc+ORXyHWgDv/ADiwzw1SNiB0mYwyaz4Luy37YAptKWjiu+rV6+m1R49esyzmTNnDq22bdu2rKzsxIkT8qMy33///apVq7QtdIajR4+qnj8ZMmQItd++fZs+DFBKpp2feuopJ7343rlzZ9q0ZMkSSsyshZGfe4mKitqyZYvxh2diY2NdXFzooikpKfaua6/z77zzDi1PnDgxKSmpV69eTojvULvgnR9AfJinBgk7UNoMJiG+gxHa0lHFd1qgVQqv8g7h4eHUsm/fPlreunWrl5cXS8/sB1W1LWTDhg0tW7ZkjZ06dcrMzGTtb731FrVQPmY/FOs4vm/atIk9P6NK5OwQPz+/oUOH0oKzszN9HpDbHcR3WqbXRR8hvL29f/nlF3vXVXa+f//+rPPZ2dkBAQHU4u7uPmHCBCfEd6hd8M4PID7MU4OEHShtBpMQ38EIbemw+N60aVMK7ocOHVLsa1dubq7qayK1LeXl5dRy48YNVUVduXKFGpUtVXH58uXbt2+z5ZKSkgMHDiQmJt69S2XInVc2lpaWZmVlsUfnmaSkJBo09o00iO9Qo+GdH0B8mKcGCTtQ2gwmIb6DEdrSuXPnzrIKZ8+e/X1Xk1RbRdm7+26dzMxMeejkTxEANVG1zVMAqDTMU4OEHShtBpPMiu/CPu8PpuCWjqWqraKKi4u/+OKL//znP+oNAKCn2uYpAFQa5qlBwg4UN4OZE9+hduOWDgAAAABYipvBEN9BH7d0AAAAAMBS3AyG+A76uKUDAAAAAJbiZjDEd9DHLR0AAAAAsBQ3g5kT34V93h9MwS0dS6GiAMSHeQogPsxTg4QdKG4GMye+C/ttO2AKbulYChUFID7MUwDxYZ4aJOxAcTMY4jvo45aOpVBRAOLDPAUQH+apQcIOFDeDIb6DPm7pWKrqFbVnz56oqKgLFy7ILUePHp05c2ZERMTOnTvlxoKCggMHDvzrX/9avHix3GjPsWPH6JxW/Jqqe5KTk3Pz5k11q83o0aO3bt2qbjVg6NChO3bsULcak5eX5+fnd/XqVfUGqO2qPk8BwGqYpwYJO1DcDIb4Dvq4pWOpKlbUuXPnPDw8qM9HjhxhLb/88ouLiwvF96VLl7q7u69YsYK1R0ZGtmzZMjQ0tF69er8fb8eECRPq16//yiuvqDdUr/Dw8A0bNqhbbXr16rVmzRp1qwGPPPLIpk2b1K3G5Obm0lBfunRJvQFquyrOUwCoBpinBgk7UNwMZk58F/Z5fzAFt3QsVcWKGjJkCM1DZXynlsmTJ7NlyqlNmzYtLCykZXYb+5tvvtGN71evXm3YsCGlf/pgUFJSotxUVlaWlpYWGxublZXluLG4uJi6dPTo0Tt37siNFH+LiorYcmlpKe1fXl5OyxcvXiwoKLh27VpcXBx9IGE7XLlypUuXLvTxg3bLy8uTT8Ko4jv3chKvb8r4TkdRu7JLiYmJ8fHxqlv++fn5+/fvT09PR3x/YFVxngJANcA8NUjYgeJmMHPiO9Ru3NIR1oYNGyiss0zJ4jsFUEreu3btYjtQDK1Tpw6FV/kQI/F91apVXbt2peBO8V0+FTl58mRYWJifn1///v09PT3ZkzncxsOHD/v6+lJQDg0N7dix4/Hjx9kZfHx89u3bx5YpN1O3KRlLtkg9depU2pNCuYuLC3WAGt944w03Nzd/f//w8HD5A4lMGd/tXY7bNzm+X758+bHHHpsyZQr7iJKamhoQEBAcHNy3b9/WrVvv2bOHnYRGr1mzZtSHoKCgadOmIb4DAABYgZvBEN9BH7d0xESpvW3bthkZGcr4np2dTctJSUnybs2bN//ss8/kVSPxnaIqjQMtvPTSS6NHj2aN5eXlPXr0iIiIKCsrk2yfE65du8ZtpP+HhITMnTuXHTh9+vRu3bqxu+wO4jvl7Bs3btDytm3bmjRpwk5o5OEZe5fj9k2qiO9nzpwJDAxcsGABO4p27t27t7xKH1roo0tBQQEdS4E+KiqK7TNx4kTEdwAAACtwMxjiO+jjlo6YKFizkK2M72fPnqXl5ORkeTdvb++1a9fKq7rx/fjx4/Xr17948aJk+xHYBg0asOXTp0/TmXNycpQ7cxtTU1OpUX7chYIyrWZmZkoO47s85tRC7efPn5eMxXd7l+P2TbJda+bMmTQsymdv0tPTaee4uLgjFZo1a3bo0KGUlBRql5+liY+PR3wHAACwAjeDIb6DPm7pCIhCcOvWrXft2kVxfNOmTdTn6OhoSu0s+yofa3Nxcdm2bZu8qhvfZ8+eTdH2rQqNGjVavnw5tVO0pViv2pnbGBsbq2wsLCykLiUkJEgO47v8PDrb/9SpU5Kx+G7vcty+SbZrtWvXLiQkRPkFMrRz3bp1B9/t4MGDdPLGjRvLu2VkZCC+AwAAWIGbwcyJ78I+7w+m4JaOpSpXUXv37u1ToWfPntTnsLAw9si4r6/vypUr2W4U6GlTWlqafKDj+H7nzh36VDB+/PhZFf70pz899NBDUkVypf8r9+c2stve2dnZbJXdwGargYGBu3fvZu2JiYm68b1Hjx7r169n7SpyfLd3OW7fJNu1Nm7cOHnyZBoxOYizndktfyXqBrVfuXKFrVLKd0J8fyBVbp4CQHXCPDVI2IHiZjBz4ruw37YDpuCWjqWqXlHKh2fI/Pnzg4KCrl69WlZWNmnSpEcffZS1FxUVUe78/PPPKb5fsmHPoyt9/fXXTZo0Yd9Uw1y4cIH2/+WXX2j5iSeeGDt27O3bt2n5xo0b7LkUbSOdNjw8fNq0abRQWlo6YcKEfv36sbONGTNmypQpku0rX55++mnd+D5q1Kg5c+awh9dV5Pju4HLavkkV16KdZ8yYERoaSqPHdh4wYAB9brl16xY7Z0xMDJ2Nlrt16zZ79mzJ1uehQ4civj+Yqj5PAcBqmKcGCTtQ3AyG+A76uKVjqapXlCq+U/yl1Ovq6tqiRYuQkBCWgwmFXae7aWPo8OHD//znP6saBw0aNH36dFrIzMzs379/48aNAwMDmzdv/v3339trTE5O7tKlS5s2bVq2bEnZ+vTp0+xUx44d8/Ly8vb29vT0XLx4sZNefP/555+Dg4OdnZ379OnDtsqU3zxj73Lcvimv9fLLLwcEBLDvlKRwTy+fdqYPP+7u7mFhYew7KJOSknx8fNq2bUs9X7hwIXfcoNar+jwFAKthnhok7EBxMxjiO+jjlo6ldCuKAu7mzZuVv1TViOzs7LS0NO399aqj/qSmphYUFOg2UiCW723LSkpKqGPsS2bMxb2cZKdv9ty8eTMlJUX1e1Upx9MnBPbFNfBg0p2nAHDfYZ4aJOxAcTMY4jvo45aOpRxU1E8//TRy5MjAwMCDBw+qtwFANXIwTwFAEJinBgk7UNwMZk58F/Z5fzAFt3Qspa2o/Pz8JUuWhISEeHl5+fr6IrsD3HfaeQoAosE8NUjYgeJmMHPiO9Ru3NKpNj/99NOIESN8fHw8PT0pu3fq1AnZHQAAAB4E3AyG+A76uKVjNfl2OwvuxNvbG9kdAAAAHhzcDIb4Dvq4pWOpmJiYgIAAiuxBQUEsu7Nb71FRUe+//z4ts2fUsIxlLN/fZQAAsBQ3gyG+gz5u6VgtPz9/9erVjz/+eHh4eP/+/du1a+dpuwGv/G2pAAAAALUYN4OZE9+Ffd4fTMEtHUspKyohISEyMjIgIGDgwIFBQUFI8ACCwDs/gPgwTw0SdqC4Gcyc+I5/Ra3duKVjKW1FyTfjKb63bdt2586dqh0AoJpp5ykAiAbz1CBhB4qbwRDfQR+3dCzloKLYzfiQkBD8DCvA/eVgngKAIDBPDRJ2oLgZDPEd9HFLx1K6FVW537oKACbSnacAcN9hnhok7EBxMxjiO+jjlo6lUFEA4sM8BRAf5qlBwg4UN4OZE9+Ffd4fTMEtHUuhogDEh3kKID7MU4OEHShuBjMnvkPtxi0dAAAAALAUN4MhvoM+Vjpk0aJFtEr/xzKWsYxlLGMZy1jGstXLiO9QSdrSKSkp2VQhJydHbi8uLj516lRubm55eTlrKSoqon12794t72OpsrKyZ555JioqSr3BgGru6j1R9s1BP48cObJ169Y7d+6oN4iNyom6nZSUxFYvXLggVxe92Lv3BQAAeIBoM5iE+A5GaEvn5s2b1OLq6hoUFHTgwAFquXXr1owZM6jFyaZdu3as/dKlS7RKu8nHWmrBggXDhw+nTxHqDTwU9AcPHiyH3Wru6j1R9s1ePwsLC2nYBw4cqGqvHNXgWI2u5e3tXVBQINm+G5ReHaslerHqXQEAAB4Y2gwmmRXfhX3eH0yhLR0W3/v06SO3DBs2jFo6duxIu33yySdPP/30Z599Jt2dNS9fvkwHsv1LSkpKS0uVyy+99FJZWZlku/m6bds2luRUaAfaWb61rzyJZDtw69atV69elVvk9vPnz6sa6UAPDw/qG33woPNIleqqZOfkStnZ2XQJeVU+27lz5yhws5bMzEz5hAydNj09XR4E2ic+Pv7o0aOS/fi+du1aav/qq6+UjaruaV+LvCkvL4+uyLqqHRxCw06vRR4WxuDLkeyPQ1ZW1o0bN7Zv306X++CDD+Qd/vCHPyC+Cw7v/ADiwzw1SNiB0mYwyaz4Luy37YAptKWjiu8JCQm06ubmRhFN3ocFOJY1/fz8hg8fTgsNGjTYsmXLiRMnaLlv377yqYi/vz/lv6ZNm7LVOnXqjB8/XnX3l9I5bXrqqadoOTIykpZXrFjBNnEPpCzr4+PD2gcNGqQ8FX3SYO2MdO9ddXByZvPmza1bt3aydYk+z9Dhubm57BJDhw6lhTZt2uzcuZNWablTp07y19hrX4uRu+8DBw6sV6+eHK+13Tt16hQtd+/eXbKlZ1qmjC7ZPqv07NlTviJ9ONEODn0Ya9WqFVulC7GPBAZfjnYc2Evo0KED+9S3Zs2a27dv169fn40zg/guPrzzA4gP89QgYQdKm8EkxHcwQls6qvj+4Ycf0urjjz8u7yBjQY3MmjVr6dKlTrbcyTIx5TNJkYlXrVpFq9HR0YmJia+++urEiROpccOGDXefT4qIiKD2adOmURYcMWKE3M4OTE5Olg/89ddfKYJTFF6/fv3evXvZ+WUUNJs1a0Z70tZNmzZJ99hVxycnx48fpzz60EMPUa+WLVtGR1EsZnmXvPnmm1OnTnWyJVr6BDJmzBhapouyY7WvxUh8b9KkSWBgIFvmdo/F9169ekl3x3fah5b/8Y9/pKam/vvf//7yyy9Vg3Ps2DH6YEAfBr755pt58+ZRO+V1qSK+O3453HGQh/pPf/oT1dWhQ4doz86dOzs7O8v/tIL4Lj688wOID/PUIGEHSpvBJMR3MEJbOqr4/sEHHzg5jO+tWrVisYySnJubmzYT+/n5SbbHMyjhPfHEExQrPT09qX3u3Ll3nU6SCgoKQkJCaBOlyStXrrBG+UCKgPKBy5cvZ2Hx7hP8jj0fwh75kO6xq7onZzuEhoZOmDCBxdng4GCWd1lo/vHHH50q7oV/8cUXtPziiy9Kdl6LbnwvLi52qojmkp3u2YvvcXFxtOzu7v7kk0++9tprZ8+ele4eHJrgtEybJNtzNQ0bNqScTWcw8nK448BeAn26UP5k6mOPPUaN169fZ6uI7+LDOz+A+DBPDRJ2oLQZTEJ8ByO0pXOvD8/IWbOhzW+//SYfTmHRqSITb9y4kZb79+8/efJk9mzMrFmz5BMyFy9e9PLyok1NmjShPMoa5QO3b98uH8iNsEosHKviu8Gu6p6cRd6+ffvOq/DPf/6T5V12ifj4eFoePHiwVJF3p02bJtl5Lbrxnbi6utIHG7bM7d6ZM2eoMTw8XKq4cc6SN9m/fz/tPHDgQCfbcy/S3YOjiu/ONnJ8d/xyuOPAfQkPPfQQfWSSH5pHfBcf3vkBxId5apCwA6XNYJJZ8V3Y5/3BFNrSUcV3wp5+7tChw4oVKz766KMJEyZof3RVqsjE165dq1u3LsX9Tz/9dNSoUU4Vmfidd96h5YkTJ27YsKFXr15OmvheXl5OAbFOnTo0zShBUhJlXzIjH5iUlCQfeOLECfkBku+//177fEvnzp1pzyVLllBQlu6xq7onZw+NBAcH0+w4duwY7bZs2TIjeZf7WozEd4rI1CUWuLndY8+X04uixqeeesqpIr4fOnRo3bp1R23atGlDL5bGWTk41K56eGbIkCFSxWcAxy+HOw7al0B/jvQH2qNHD7kF8V18eOcHEB/mqUHCDpQ2g0lmxXeo3bSlo43vt27devHFFxs1auRkY++LI1kmpgWWAinYzZgxw6kiE2dnZwcEBDjZHuSgDwBOmvj+7rvvOlXcVFYu2ztw69at7Fa9E++nSzdt2sQeEeHGYsddlfROTj7//HN2fifbvxUsXbrUSN7lvhYj8Z3+gKidEjZb5XbvrbfeolXK4vSH5VQR3/fs2dO4cWO2Jy2wP2jV4NAHqpYtW7J9+vfvn5mZKRmL7xJvHLQv4dtvv6UWSvZyC+I7AACANoNJiO9ghLZ0WHxv2rQpJXj2c4fMnTt30tPTL1y4IP8AogOXL19WfpMgU1pampWVpf3aQV0ODqSU6fi7HXXRGb777rvExET1BgMnZzsov6JRl4PX4sCNGzdatWo1atQoZaO2e1euXKE9lS2S7Ukn2i0jI8PBV+bTnyntoz3WIMfjMG7cuObNm7Mv/UxKSqK6Yl+/g/gOAAAPMm0GkxDfwQht6VBMX1aB/aRj7aa9WyymH374Yfny5dX2u5bMUlJSsmLFin379rHVzMxMubpu3759974AAAAPEG0GkxDfwQhu6TxQiouLv/jii//85z/qDQAAAACW4WYwc+K7sM/7gym4pWMpVBSA+DBPAcSHeWqQsAPFzWDmxHdhv20HTMEtHUuhogDEh3kKID7MU4OEHShuBkN8B33c0rEUKgpAfJinAOLDPDVI2IHiZjDEd9DHLR1LoaIAxId5CiA+zFODhB0obgZDfAd93NKxFCoKQHyYpwDiwzw1SNiB4mYwc+K7sM/7gym4pWMpVBSA+DBPAcSHeWqQsAPFzWDmxHeo3bilAwAAAACW4mYwxHfQxy0dwe3ZsycqKurChQtyy9GjR2fOnBkREbFz5065saCg4MCBA//6178WL14sN2pt2bIl6m5V/2VVo0eP3rp1q3a5KnJycm7evKluNYOyhzRoNIzBwcGDBg26157n5eX5+fmx364KAAAAjnEzGOI76OOWjsjOnTvn4eFBfT5y5Ahr+eWXX1xcXCi+L1261N3dfcWKFaw9MjKyZcuWoaGh9erV+/14jcGDB9M+EQrJycnqne7RkiVL6JMDW+7Vq9eaNWvu3l4Z4eHhGzZsULeaQdnb6Ojo7t27p6enX758WdluRG5uLv25XLp0Sb0BAAAANLgZDPEd9HFLR2RDhgx5//33lfGdWiZPnsyWN23a1LRp08LCQlpm96q/+eYb3fg+a9YsdaskXbx4saCg4OrVq7GxsefPn2eNKSkp8fHxRUVFyj0zMjJon99++62srIy15OXl0bFs2V58Z+e/du1aXFwcfSZRbiouLqZXd/To0Tt37rCWK1eudOnShT6ZZGVl0cmVO+fn59NWZUt2djYbAVJaWpqYmEh9Vt65Z5emA/fv359nw3pLkf2FF1547rnn6CrXr19Xvgp7p5JsHaDzUOJHfAcAADCOm8HMie/CPu8PpuCWjqWqUlEbNmygsM5iIovvlCkbNmy4a9cutgMlyzp16lCYlg+pdHx/5JFHpkyZ0rFjxx49ejg7O+/YsYNWKUP7+fnR/+VcS58c2rdvP2DAAH9//+7du7MkrYzs9uI7nX/q1Kl0ftrBxcVl1apVrP3w4cO+vr60NTQ0lLYeP36cGt944w03Nze6RHh4uPxZhVm3bl1gYKC8Sp8i6PXSENFyampqQEBAcHBw3759W7duvWfPHrYPnZxO4u3t3a1bt+3bt8s9nD17dmsbusqHH36o7Lm9U9FQN2vWjPYPCgqaNm0a4nutUZV5CgDVA/PUIGEHipvBzInvwn7bDpiCWzqWqnRFUSRt27ZtRkaGMr5nZ2fTclJSkrxb8+bNP/vsM3nVSHx/+OGHpyncunVLsmVciuNs+Z///Kerqyt7LKeoqKhTp07r169nh2dlZbGFsrKysWPHvv7665Lh+B4WFnbjxg1a3rZtW5MmTegM9GkkJCRk7ty5bJ/p06dTwi4vL5fsPzxDZ6BkHx8fz1bp2GHDhtECHdW7d+8FCxawdvqE4+HhwT510KUpiMv37JU9jIyMpBFQtds7FXWYzhMVFcX2mThxIuJ7rVHpeQoA1Qbz1CBhB4qbwRDfQR+3dCxV6YoaPXo09VaqeMaaxfezZ8/SsvJpdW9v77Vr18qrRuL7o48+qvzR1du3b0u2jBsdHc32iY2NrVu3rvzMzKRJk+bNm8eWKbb+8MMPNIB04MiRI+lskuH4Lg97fn4+vYrz58+npqbSgvx4zJkzZ2g1MzNTsh/fJVt/KOhLtn+LoJf/1Vdf0XJ6ejodGxcXd6RCs2bNDh06JNku/d5778mH68Z3e6dKSUmhdvlZGvoIgfhea1R6ngJAtcE8NUjYgeJmMMR30MctHUtVrqL27dvXunXrXbt2URzftGkT9ZmyNaV2FnyV/y7m4uKybds2edVIfLf38AxdiC1TMG3UqJG8KSIiQj5kxIgRXbt2XbRoEfXn2WefpcgrGY7v8vkLCwvpVZw6dYo+J9SvX1/eh7UnJCRIDuM7fX5wd3enTxd79uxp0aJFcXExNVLapo8cg+928OBB6e5LSwbiu71TUW8bN24snycjIwPxvdao3DwFgOqEeWqQsAPFzWCI76CPWzqWqlxF7d27t0+Fnj17Up/DwsLY8+K+vr4rV65ku1Ggp01paWnygZbG9zNnzlCuZQ/AkAULFlQxvp8+fZoWsrOzWTu7vc1We/ToIT+xo1JeXk6D8OWXX06cOJHyN2tkYVr+oVule43v9k5FHaZ2+SEcSvmI77VG5eYpAFQnzFODhB0obgYzJ74L+7w/mIJbOpaqekUpH54h8+fPDwoKunr1allZ2aRJkx599FHWXlRURFHy888/p/h+yYY9RK5C8Z0CK9uBYQ/JGInv586do56cOHFCsmVZDw+PKsZ36mF4eDj1hxZKS0snTJjQr18/ts+oUaPmzJkjf7mNyptvvkl7urq6Hj58WG4cMGDA+PHj2eP7dMKYmBg6p3Tv8V2yf6pu3brNnj1bsn1bztChQxHfa42qz1MAsBrmqUHCDhQ3g5kT36F245aO4FTxnbIvRVtKri1atKkzGlIAAEZOSURBVAgJCaEQzNopejrdjZssKb6rdmPPqBiJ7+Tll1+mS9N1O3XqREG2ivFdsv0DQpcuXdq0adOyZUuK8qdPn2b70LtPcHCws7Nznz595JPI2I3w0NBQZWNOTs7w4cMbN25MH2/c3d3DwsLYN1FWIr7bO1VSUpKPj0/btm29vLwWLlxob5ABAABAhZvBEN9BH7d07q/8/PzNmzcrf6mqEdnZ2Wlpadz761bLy8s7efIkuxttForL7Msfq+7mzZspKSmm/DJU7qkox9NHjmvXrikbAQAAwDFuBkN8B33c0rlf9u/fP2zYsMDAQPYTlgAAAAC1FTeDIb6DPm7pVLP8/PyFCxcGBQV5enr6+fkhuwMAAECtx81g5sR3YZ/3B1NwS8dSyorav3//kCFDvL29Kbj7+PjgvjuAIPDODyA+zFODhB0obgYzJ74L+207YApu6ViKKkq+3e7l5eVp07ZtW2R3AHHgnR9AfJinBgk7UNwMhvgO+rilY6nIyMiAgACK7F26dGHZnVCOf+utt6jYaJmVHJaxjOX7uMxWAUBkmKcGCTtQ3AyG+A76uKVjqfdtd99Xr179+OOP9+zZc9iwYe3bt6fE4O3tvWXLFvXeAHA/4J0fQHyYpwYJO1DcDIb4Dvq4pWMpZUUlJCSwm/FDhgzp0qULEjyAIPDODyA+zFODhB0obgYzJ74L+7w/mIJbOpbSVpR8M57ie7t27b7++mvVDgBQzbTzFABEg3lqkLADxc1g5sR3qN24pXO/sJvxISEh+BlWAAAAqN24GQzxHfRxS+f+qtxvXQUAAACoQbgZDPEd9HFLBwAAAAAsxc1giO+gj1s6AAAAAGApbgYzJ74L+7w/mIJbOpZCRQGID/MUQHyYpwYJO1DcDGZOfBf223bAFKx0yKJFi2iV/o9lLGMZy1jGMpaxXGuWBw0axG2/78uI71BJ2tIpKSnZVCEnJ4daSktLqbG8vPz3w+727rvv3r59+9y5c+vWrVNv06hERRUVFVFndu/erd5gc/LkyR49erz66qvqDffCwSXOnj37+OOP//DDD+oNGg5Oois9Pb1nz56zZs1SbzDmwoUL8p8adUO9GeAeVWKeAkA1wzw1SNiB0mYwCfEdjNCWzs2bN6nF1dU1KCjowIED1OLj4+NkQ40hISGvvPLKjRs3fj+FJH388cft27fv2LHj3r17le1claioS5cu0dWpP+oNto8Wjz322MaNG3v16vWf//xHvdm+Z555ZvDgwXfu3GGrDi5BKLv7+/vn5uaqN9zN8UkcoI9GTzzxxNq1a/v167d9+3b1ZgMSEhLouvQHRB2gbqg3A9yjSsxTAKhmmKcGCTtQ2gwmIb6DEdrSYfG9T58+cguL73+2adOmDS2HhYUVFhbKO1y4cOHMmTMFBQVyS0lJCQVrWrh8+TKdUG4nixcvvnbtmmRL3mwfFe2xylisOiEtU7ZOT0/Pzs5OTU2V25UnUXaVoU0eHh50zlu3btGeksNLSLYXuG/fvlOnTskt2k5KeidRohOeP39eXr19+/axY8eybZKTk+V27lUk26vmjuEf/vAHxHcwBd75AcSHeWqQsAOlzWCSWfFd2Of9wRTa0rEX348cOULLV65cadeuHa2uWbOGbW3atKmTTZ06dcaPH3/nzh2WYv38/IYPH04LDRo02LJlC9s5Kiqqrs2UKVPq1avXqFEj+SoM91huI9tfe3XlSYYMGUILDRs2/PTTT5VX6dixIzuKsXdde5ewt7O9dqWvvvpK/teMQYMGscbPPvusVatWrHHgwIEs2ds7m4MxRHwHs+CdH0B8mKcGCTtQ2gwmmRXfoXbTlo4qvv/1r3+l+EstvXr1+vrrr6ll1qxZtPrCCy+wHaKjoxMTE5OTkydOnEjtGzZsYLmT0J5Lly51qrghTbvRspeX144dO6ZPn07L9uK76lhuI9tfe3XlSSjpfv75525ubq6ursrfA7Vz585mzZrRDuvXr9+0aZO969q7hL2d7bXLfv31V0rh9HmArrt3795Vq1ZR47FjxyiFU6b/5ptv5s2bR0cNHTrU3tkcjyHiOwAAQE2hzWAS4jsYoS0dVXx/6aWX2BPVTz755L///W9qmTlzJq1GRERItoe2ly1b9sQTT3Tu3NnT05Pa586dy3Jnq1at2E+71q9fnwK0fC32M6a3bt1SRU+Geyy3UbJzdfkkHh4e7Jzjxo2jVdVPlLKHZ+Tnau7pEvZ2ttcuW758Oe1AQ6psfP/996nxtddek2wPw9CHJWdn55KSEu7ZHI8h4jsAAEBNoc1gEuI7GKEtHccPz1A0ZKvsS2Y2btxIy/3799++fXtkZKST7VYxy53yjeeGNrSwatUqtgM7jyp6MtxjuY2SnavLJ6G0zfbnxneWxVXx3eAl7O1sr11mJL4728jxXXU2x2OI+A4AAFBTaDOYhPgORmhLx158f/bZZ5977jn2iHZ4eDj7dsJ33nmHVidOnJiUlNSrVy/H6fbUqVP169dv1qzZu+++O3ToUFX0ZLjHchslO1eXT+Jke3hmy5Yt2odnSOfOnWmHJUuWsG96uadL2NvZXrvsxIkT8sMz33//PXt45ujRo6qHZ4YMGWLvbI7HEPEdAACgptBmMMms+C7s8/5gCm3p2IvvdevWbdy4MaXe1157Tf4WlOzs7ICAANrq7u4+YcIEx+mWbN68uU2bNt7e3hSs69SpQx8GWLuMeyy3UbJzdfkkfn5+LOA6OztTXK64wv/ZtGkTe36GnfaeLmFvZ3vtSlu3bvXy8nKykX90dcOGDS1btmSN/fv3z8zMlOyfjcawbdu23DFEfAez4J0fQHyYpwYJO1DaDCaZFd+F/bYdMIW2dFh8b9q0KSX4Q4cOKfblKy0tzcrKKisrU2/g+emnn9555x1a+PTTT+kqgwcPVu9xj+jqcTZ5eXlyozL4Xr58+fbt278fcO/u6QUalJubq/ziSMn2kD21qL5Qn4vGkP3Th3IMk5KS6M+LfUkO4jtUHd75AcSHeWqQsAOlzWAS4jsYoS2dO3fuLKtw9uzZ33c1A0XMunXrNmnShC7aoUMH5Te1V9os2zfhsC+QYVT3rWsZGsP69eurxjAzM1P+U6vixxUACe/8ADUB5qlBwg6UNoNJiO9gBLd0rJOTkzNlypQvvvjiwIED7PclVV1SUhKdMCMjQ26hTyB79uxhvzK29qEx3LVrl7ljCKCCd34A8WGeGiTsQHEzGOI76OOWjqVQUQDiwzwFEB/mqUHCDhQ3g5kT34V93h9MwS0dS6GiAMSHeQogPsxTg4QdKG4GMye+Q+3GLR0AAAAAsBQ3gyG+gz5u6QAAAACApbgZDPEd9HFLBwAAAAAsxc1giO+gj1s6AAAAAGApbgYzJ74L+7w/mIJbOpZCRQGIr4rz9OrVqyEhIYcPH1ZvAADzVHGePjiEHShuBjMnvgv7bTtgCm7pWAoVBSA+B/N0y5Yt33//vbrVJjc3d/z48cuXL1+/fv0333yj3myZgoKCiIiI4ODgQYMG0ero0aO3bt2qXDAoJyfn5s2b8urQoUN37Nih2F6t7rXzSUlJI0aMULdWgWo0qtOGDRvS0tLUrTYGe6UsCVV5MA4uoZKXl+fn50efSNUb7DPyZ/fnP//5v//9r7r1HjmYp6Ak7EBxMxjiO+jjlo6lUFEA4nMwTwcPHjxr1ix1qySVlJQMGzYsPj7+L3/5y86dO9WbrRQdHd29e/f09PTLly/T6pIlS9hvbevVq9eaNWvUe9sXHh5OqU5efeSRR5S/zrma3WvnBw4cSJ+s1K1VoBqNakNpu1GjRpcuXVJvsDHYK2VJqMpD0ruECn0opb8lDe7MyBXowHfffRcWFqZuvUcO5ikoCTtQ3AyG+A76uKVjKVQUgPgczFN78Z1kZGTExsb+9ttvZWVlrCU/P//KlSvKfbKzswsLC5UtFy9epDhF0Wr//v3KX58sb6KT0Ka8vDxqKS4uPnLkyNGjR+/cucP2oQNfeOGF5557Lisr6/r165LtdikdJWkScGlpaWJiIn3A4N6+pX526dJlxYoVdB52LRbfr127FhcXd+7cOeXO9k6l7Z6K9hVJdo5Sdt7e5WQnTpxo3rx5UVGR3EJ/BGlpafTHQS9HbqQkKu9D56RN5eXlbJV2jomJSUpKYn3QjoZkp5/sFV29epWudf78edaYkpJCvVX2h/sSuKOxffv2fv36sWUjvdJWnbIkzp49qyoP6e5LaA9nWK8o9Kviu5HXK1egvL+2imjk27VrRyeRWyrBwTwFJWEHipvBEN9BH7d0LIWKAhCfg3lqL75Pnjy5ffv2AwYM8Pf37969O0vtFH87duwoZ8Rjx441aNCAAo3yQErJlK7oqL59+7q6ur733nvKTXRab2/vbt26UeQ6fPiwr68vNYaGhtJpjx8/TvvMnj27tU14ePiHH34oKYKvMgGnpqYGBAQEBwfTVWjnPXv2yFdh3njjDTc3N+oGnYcuKtmuPnXqVLoQncfFxWXVqlVsT3un4nZPRfWKJPtHyZ23dzmlBQsWjB8/Xl49efJkWFiYn59f//79PT095X8M8fHx2bdvH1umOEtv/hRSKbaOGzeOuvTHP/6RjmJPmGhHw14/qWXKlCnU0qNHD2dn5x07dtAqhWy6Ov2fpVh7L0E7GuQvf/kLlZ/BXnGrTlkStElVHvIl7B1OKFU3a9aMDgkKCpo2bZoyvht5vcrCs1dF5G9/+9uMGTPk1UpwME9BSdiB4mYwc+K7sM/7gym4pWMpVBSA+BzMU3vxXb7LS8Fr7Nixr7/+Oi0XFRW1atVKjowvvvji008/LR/CUL6hcMOeLY6Li6N8f+bMGXkTZT4WqkpLS0NCQubOncs2TZ8+nTIf+2AQGRlJGev/TseL77Rb7969KeOyHXbt2uXh4SHfH5VpH56h4Hjjxg1a3rZtW5MmTeil2TuVg+4pKV+R5PBFsc7buxxblVEAXbJkCVumQyhZRkREsNvJdIlr166xTdz4Tp+pGjVqJJ9TvkWtHA0H/aRXRMH31q1btPzPf/6TPoCtWLFCsv3Rd+rUaf369Q5egmo0JNuFqGDS0tKM9EqyU3XS3SWhKg/5EpKdw2mZehUVFSXZBnPixImq+O749Uqa+K6tIrbpk08+oa1suXIczFNQEnaguBnMnPgOtRu3dAAA7LEX3yno/PDDD/RmQrln5MiRtBtrf/XVV9mNYYpizZo10/64HiWYt99+W16lfCbfoaRN8s341NRUerOSH5mgiE+rmZmZkiafaeN7eno67UyfDY5UoJ4cOnRIPoTRxnf5vZFiLp3h/Pnz9k7loHtKylckOXxRrPP2LiefgaG4uXbtWrZ8+vRpOiQnJ+fuXf4XN77TgrOzM6V/1Y9yKkfDQT/pFUVHR7P22NjYunXrys+QTJo0ad68eQ5egmo0JNvnt86dO0u27un2SrJfdQ7iu3wJyc7hKSkp1GH5IZ/4+Hinu+O749craeK7torY6o4dO1q3bs2W4cHEzWCI76CPWzoAAPbYi+8jRozo2rXrokWLKNw8++yzlGBYO0W9hg0bXrx4cf369QEBAdwb0nL0JMOHD58/f768Sf7hUYpK9evXl3crLCyk966EhARJk8+08Z0SG8WswXc7ePCgfAijje/y1dnlTp06Ze9UDrqnpDyn5PBFsc7bu5x8CBMaGvrJJ5+wZTpEeU4lbnyn5b179w4ZMsTNza1Dhw5ffvkl20E5Gg76qXxFlHQbNWok7xYREUGl4uAlqEaDzJkzR76DrtsryX7VOYjvyktwD6cX27hxY3n/jIwMVXx3/HolTXzXVhFb3bZtm6enJ1uGBxM3gyG+gz5u6QAA2DOYF98po1NEY08ISLZHseUgRSiEvfvuu7179162bJncKKN8Iz9ZQR5++OGPP/5Y3iRHH3ZTOTs7m62yW6RsVTe+swQm3/W0p0ePHuzhB4YbvOydykH3lFSB1cFRrPP2LqcydOjQf/zjH2yZHaL6IWAmMDBw9+7dbDkxMdGpIr4zxcXFlGIbNGjA/hyVo+Ggn7px1sFL0Mb3Tp06qf5twUGvHFSdg/guX8Le4fSnTB2WH+mhjx9O1sT3lStX9uzZky3Dg4mbwRDfQR+3dAAA7KH4TmHokkJpaem5c+foneTEiROSLf14eHgo4/uuXbtatWrVsGFDOQMpUb7x8fFh8W7Hjh0uLi5yTFRGn/Ly8vDwcLo0LdAVJ0yYIH95iG58l2xPh48fP549skxniImJoZPIhzCjRo2aM2eO/GiyveDFPZWD7impAquDo+TOcy8nn4FZsmSJ8kvfn3jiibFjx96+fZuWKZ7KD9KMGTNmypQpki0TP/300yy+U7w+efIk2+Hnn3+uV68ee25EORoO+mkkztp7CarR+PXXXz09Pdm/zxjplYOqsxfflZdwcHi3bt1mz54t2QaKPhpZFN+ff/75l19+mS3Dg4mbwcyJ78I+7w+m4JaOpVBRAOJzME8pvjvdjQUgCiKurq4hISGdOnWi6KOM75TV2rZt+8wzz/x+FgXKNxSw/Pz86EA3N7d169YpNynjXXJycpcuXdq0adOyZUtKk6dPn2btRuI7Rdjhw4c3btw4KCjI3d09LCxM+92O9KqDg4OdnZ379Okj2Q9e9k5lr3tK2vvN9o6SO2/vckpnz56lHeTHtTMzM/v3708tgYGBzZs3l3/N1rFjx7y8vLy9vSnCLl682MkW3+lV0z70BxQaGkoLH330EdtZNRr2+mkkztp7CarRoC5NnTqVLRvslb2qsxfflZeQ7B+elJREHynp6jRcCxcudLIgvtMI0EjShSqOrgwH8xSUhB0obgYzJ74L+207YApu6VgKFQUgvsrN07y8vJMnT2rvDVOsbNq0aVxcnKqdYfmmqKiIAqL8BSMOUBbMzc1VtxpDPUlJSbmn36Bpj71TVa57ukfZu5xs/PjxH3zwgbKFonlqaqrqa2pKSkrS0tLkJ0YY+iOjDwD0Z6f6Sn4t3X46oPsSKPX++9//llcN9spe1XGpLiHZP5ziNRWk/KU9ptu6deuAAQPUrfeocvO0Nrlw4cLmzZuVz4BxCTtQ3AyG+A76uKVjKVQUgPhMnKf79u177rnnlDfjVbQ3pKESzpw589e//lXdWqMkJiZq/2HBXNVwCYPmzJlz5MgRdes9MnGe1lwHDx4MDAwcMmSI9lutZMIOFDeDIb6DPm7pWAoVBSA+E+fpmDFjIiIizp49q95Q4e9///v+/fvVrQCgx8R5WqNRgvf19fX09KQcP3/+fO3NeGEHipvBEN9BH7d0LIWKAhAf5imA+DBPZZTgAwIC2M910P8HDx6svBkv7EBxM5g58V3Y5/3BFNzSsRQqCkB8mKcA4sM8VVImeOLl5SXfjBd2oLgZzJz4DrUbt3QAANhfgQAANRHl+D59+njanqiJiYlRv8GJgZvBEN9BH7d0AAAAAGqQlStXenl5UV5/5JFHJkyY8Nhjjz3++OOrV6/WPgovDm4GQ3wHfdzSAQAAAKgpWHanyD5mzJjAwMDIyMiEhAT1TuLhZjDEd9DHLR0AAACAGmHz5s3t2rXz8fER/3a7CjeDmRPfhX3eH0zBLR1LoaIAxId5CiA+zFPJ9hOrISEhjm+3CztQ3AxmTnwX9tt2wBTc0rEUKgpAfJinAOLDPMVvXbVL2NcMpuCWjqVQUQDiwzwFEB/mqUHCDhQ3gyG+gz5u6VgKFQUgPsxTAPFhnhok7EBxMxjiO+jjlo6lUFEA4sM8BRAf5qlBwg4UN4OZE9+Ffd4fTMEtHUuhogDEh3kKID7MU4OEHShuBjMnvkPtxi0dAAAAALAUN4MhvoM+bukAAAAAgKW4GQzxHfRxSwcAQHxlNupWAIAagpvBEN9BH7d0AACqQVpa2uLFiz/66KOSkhL1NgN+++23gICA7Oxs9QYAgJqAm8HMie/CPu8PpuCWjqVQUQDiq8Q8LS0tjeKhgK7etUJGRsa1a9eef/75/fv3q7fpefXVV5999tndu3d/+OGH6m1mKCgoiIiICA4OHjRoEK2OHj1669atygWA+64S8/TBJOxAcTOYOfFd2G/bAVNwS8dSqCgA8VVinpaUlERU8Pf3DwoKYst/+9vf1LsqfPnllwsXLlS36vnggw8WLFjw7bffUvRXbzNJdHR09+7d09PTL1++TKtLliw5cOAALfTq1WvNmjXqvQHuh0rM0weTsAPFzWCI76CPWzqWQkUBiK+K83TcuHEU3JUtFy9eLCgoyM/P379/f15eHmvMyMiIjY397bffuI+w085XrlxRtmRnZxcWFkq2O/2JiYnx8fE3b95U7qDErkjhm65IF1K1K3tSXFx85MiRo0eP3rlzh+1DR73wwgvPPfdcVlbW9evXqYX2pKMkTXw30hMAi1Rxnj44hB0obgZDfAd93NKxFCoKQHxVnKfa+P7II49MnjzZ29u7W7du27dvpxZabd++/YABA/z9/bt3765K6mTdunWBgYHyKqX8evXq5ebmpqamBgQEBAcH9+3bt3Xr1nv27FEc9Du6IuVvOjnt5urq+t5778ntyp4cPnzY19eXGkNDQzt27Hj8+HHaZ/bs2a1twsPD2cM5cmpXxneDPQGwSBXn6YND2IHiZjDEd9DHLR1LoaIAxFfFecqN7xRzlRk9KyuLLZSVlY0dO/b111+XNzE3btxwc3OLj49nq3Pnzh02bFh5eXnv3r0XLFjAGnft2uXh4cHui6vQFSmOX716lZbj4uIaNGhw5swZ1i73pLS0NCQkhM7MDpk+fTpleroELUdGRk6bNk0+mza+G+8JgEWqOE8fHMIOFDeDmRPfhX3eH0zBLR1LoaIAxFfFecqN7/L9b4bi7w8//EBvPlFRUSNHjhw8eLByKzNp0iSK1JItZ3t7e3/11Vfp6en0lkVx/EiFZs2aHTp0SH2k7Ypvv/22vBoeHr5q1SrWLvckNTWVziY/zEP5nlYzMzMlA/HdeE8ALFLFefrgEHaguBnMnPgOtRu3dAAAqoIb3zdt2qRsGTFiRNeuXRctWhQdHf3ss89SLFZuZSjfu7u7FxUV7dmzp0WLFsXFxRSX69atO/huBw8eVB9pu+LatWvl1eHDh8+fP5+1yz2JjY2tX7++vE9hYSG9HyYkJEgG4rvxngAAcHEzGOI76OOWDgBAVejG9zNnzlD2vXHjBltdsGABN76Xl5f7+vp++eWXEydOpDwt2X7ald6yzp8/r95Vg64oP9lCHn744Y8//pi1yz05ffo0nU3+5viUlBR5VTe+G+8JAAAXN4MhvoM+bukAAFSFbnw/d+4cvfOcOHGClk+dOuXh4cGN7+TNN9/s16+fq6vr4cOHWcuAAQPGjx9/69YtyZbvY2JiSktL7zrGhq7o4+PD4vWOHTtcXFxYLlf2hA4PDw+nmE4LdJIJEybQtdgm3fguGe4JAAAXN4MhvoM+bukAAFSFbnwnL7/8MoXykJCQTp06zZ492158p3BP71GhoaFyS05OzvDhwxs3bhwUFOTu7h4WFiZ/4aMSXZEiuJ+fH53fzc1t3bp1cruyJ8nJyV26dGnTpk3Lli0pyp8+fZq1G4nvBnsCAMDFzWDmxHdhn/cHU3BLx1KoKADxGZmn+fn5mzdvvnDhgnqDYXl5eSdPnqzcHeubN2+mpKSwL5bhYjG9qKiIAjr77nYHKIjn5uaqW43R7QmARYzMU5AEHihuBjMnvgv7bTtgCm7pWAoVBSA+x/N07969w4cPDw4OFvknNbX3+wFqGcfzFGTCDhQ3gyG+gz5u6VgKFQUgPu48vXr16rx58zp16uTl5eXv7y9ydid///vf9+/fr24FqEW48xS0hB0obgZDfAd93NKxFCoKQHyqebp3794nn3ySUrunpyfF95CQEMGzO8CDAH+fGiTsQHEzGOI76OOWjqVQUQDiY/NUebvd0ybEBtkdQAT4+9QgYQeKm8HMie/CPu8PpuCWjqVQUQDio3kaExNDwZ0ie9u2bVl2Jz4+PitXrqS/C2mZ/Y2IZSxj+X4tz5o1i9uOZdUyGygBcTOYOfEdajdu6QAASLbvllm9enXfvn27dOnStWtXTxtfX98ff/xRvSsAANwjbgZDfAd93NIBAFBKSEiIjIzs2LFj796927VrhwQPAFB13AyG+A76uKUDAKAl34z39vamEI8EDwBQFdwMhvgO+rilAwDgALsZj59hBQCoCm4GMye+4wcNazdu6VgKFQUgPiPztOq/dRUAqsLIPAVJ4IHiZjBz4jv7uV2orbilYylUFID4ME8BxId5apCwA8XNYIjvoI9bOpZCRQGID/MUQHyYpwYJO1DcDIb4Dvq4pWMpVBSA+DBPAcSHeWqQsAPFzWCI76CPWzqWQkUBiA/zFEB8mKcGCTtQ3AxmTnwX9nl/MAW3dCyFigIQH+YpgPgwTw0SdqC4Gcyc+A61G7d0AAAAAMBS3AyG+A76uKUDAAAAAJbiZjDEd9DHLR0AAAAAsBQ3gyG+gz5u6QAAaJWWlkbxLF68WL3rPdqyZcv3339PC3FxcevWrZPbT5w4QefPzc2VW5YtW3bs2DF1D2y03cjJybl586aqUWvo0KE7duxQtwIAWIybwcyJ78I+7w+m4JaOpVBRAOLjztOSkpKICv7+/kFBQWz5b3/7m3rXezR48OBZs2bRwvbt2xs1anTnzh3W/sorr9SrV08O9OfOnaP3q6NHjxrsRnh4+IYNG1SNWo888simTZvUrQDC485T0BJ2oLgZzJz4Luy37YApuKVjKVQUgPh05+m4ceMoMasaMzIyYmNjf/vtt7KyMmV7cXHxkSNHKHbLuVxFju9XrlypU6fOwYMHWXuPHj2ee+65559/nq1u3LixVatW5eXl8oHcbjB0qi5duqxYsSIrKysvL481cnuijO+0A+1fVFTEVktLSxMTE+Pj45V38S9evFhQUHDt2rW4uDj6RCG3A1Qz3XkKjLADxc1giO+gj1s6lkJFAYhPd55qc/PkyZPbt28/YMAAf3//7t27U3pm7YcPH/b19aWIHBoa2rFjx+PHjyuPYuT4TihzL126lBZu3Ljh5uZ27Nixdu3asU0vvPACXVc+SuJ1Q/bGG2/Q4dSZ8PBw6ptkvydyfL98+fJjjz02ZcqUkpISWk1NTQ0ICAgODu7bt2/r1q337Nkj7z916lQ6Q69evVxcXFatWvV/lwSoXrrzFBhhB4qbwRDfQR+3dCyFigIQn+481ebmrKwstlBWVjZ27NjXX39dst29DgkJmTt3Lts0ffr0bt26KW+fM8r4PnPmTFqlhW+//bZPnz604O3tfebMGVro0KHDypUrFcdxuqGkfHjGQU9YfKdLBAYGLliwgO1Am3r37i2v7tq1y8PDo6CggO0fFhZGny5oedu2bU2aNFH9awNA9dCdp8AIO1DcDIb4Dvq4pWMpVBSA+HTnqTY3U9794Ycf6M0kKipq5MiRLIKnpqbSO4z87ApFZFrNzMxUHijdHd+3b9/euHHjkpKSefPmvfHGG9QyYcKEdevW0ccDOvbEiRPKA7XdUFLGdwc9oThOnxnoQ8KaNWsqDpXS09Nph7i4uCMVmjVrdujQIba//J6Zn59Pu50/f14+EKDa6M5TYIQdKG4GMye+C/u8P5iCWzqWQkUBiE93nmpz84gRI7p27bpo0aLo6Ohnn322V69e1BgbG1u/fn15n8LCQnrDSUhI+P0wG2V8Z4+/0z69e/feu3cvtXzwwQfPP//85s2bVQ++S7xuKCnju4OeUBxv165dSEjI1atX5R0ouNetW3fw3dhD+cpn5dl5Tp06JR8IUG105ykwwg4UN4OZE9+hduOWDgCAY6rcfObMGQq77HkSsmDBAhbfT58+Te8w2dnZrD0lJUW5KlPGd8n2+PvChQtdXV3ZD4yeOHHC19f3r3/9q+rBd0nTDZUePXqsX7+eLTvoCcXxjRs3Tp48OSws7NKlS2yHjIwMe7fVEd8BwBTcDIb4Dvq4pQMA4JgqN7OvdGRPtlCW9fDwYPG9vLw8PDx82rRptFBaWjphwoR+/frJR8lU8X3mzJnNmzfv2bMnW6VjW7ZsSS2qB98lTTdURo0aNWfOHPZguoOesDhO7TNmzAgNDZW/Zn7AgAHjx4+/desWOzwmJoYOlPdn+yC+A0ClcTMY4jvo45YOAIBj2tz88ssvu7q6hoSEdOrUafbs2Sy+k+Tk5C5durRp04YiOAXo06dPK49iBg4cKP9QKdmxYwe9L73yyityy+jRo+WPB0rabij9/PPPwcHBzs7O7Edg7fVEGcfpVQQEBLAfw83JyRk+fHjjxo2DgoLc3d3DwsLY100ivgOAKbgZDPEd9HFLBwCgEijv/ve//2XfuqjdpPzlqSr+/v7R0dHqVms47onWzZs3U1JSlI/FAwCYgpvBzInvwj7vD6bglo6lUFEA4qvcPD116hS9nxQWFqo32Pf111+PGTOmUaNGlKrV2wDAocrN0weQsAPFzWDmxHdhv20HTMEtHUuhogDEV7l5euPGjQ0bNrAHxA366KOPFi5cmJaWpt4AAHoqN08fQMIOFDeDIb6DPm7pWAoVBSA+zFMA8WGeGiTsQHEzGOI76OOWjqVQUQDiwzwFEB/mqUHCDhQ3gyG+gz5u6VgKFQUgPpqnnvebuk8AcDf8fWqQsAPFzWDmxHdhn/cHU3BLx1KoKADx3fd5ivgOoOu+z9OaQtiB4mYwc+I71G7c0gEAuL8Q3wGg1uNmMMR30MctHQCA+wvxHQBqPW4GQ3wHfdzSAQC4vxDfAaDW42YwxHfQxy0dAID7C/EdAGo9bgYzJ74L+7w/mIJbOpZCRQGI777PU8R3AF33fZ7WFMIOFDeDmRPfhf22HTAFt3QshYoCEN99n6eI7wC67vs8rSmEHShuBkN8B33c0rEUKgpAfEbmaX5+/ubNmy9cuKDeYAbEdwBdRuYpSAIPFDeDIb6DPm7pWAoVBSA+x/P0559/HjduXHBw8MGDB9XbTIL4DqDL8TwFmbADxc1giO+gj1s6lkJFAYiPO0/z8/OXLl0aEhLi5eXl7+9vXXaXEN8BDODOU9ASdqC4Gcyc+C7s8/5gCm7pWAoVBSA+1Tyl1VGjRvn4+FCq9vX1DQoKsjS7S4jvAAbg71ODhB0obgYzJ75D7cYtHQAASXG7nQV34u/vXw3ZXUJ8B4AHADeDIb6DPm7pAADExMSwyH6/qDsEAFC7cDMY4jvo45YOAIBku/u+evXq3r17h4SEdOzYkaVqq596BwB4QHAzGOI76OOWDgCAUkJCwowZM9q3b//www8jwQMAmIKbwcyJ78I+7w+m4JaOpVBRAOLjzlP5Zry3t3e7du2Q4AHuL+48BS1hB4qbwcyJ78J+2w6Ygls6lkJFAYjP8TxlN+Mt/d53ANDleJ6CTNiB4mYwxHfQxy0dS6GiAMRnZJ5a+ltXAUCXkXkKksADxc1giO+gj1s6lkJFAYgP8xRAfJinBgk7UNwMhvgO+rilYylUFID4ME8BxId5apCwA8XNYObEd2Gf9wdTcEvHUqgoAPFhngKID/PUIGEHipvBzInvULtxSwcAAAAALMXNYIjvoI9bOgAAAABgKW4GQ3wHfdzSAQAAAABLcTMY4jvo45YOAAAAAFiKm8HMie/CPu8PpuCWjqVQUQDiwzwFEB/mqUHCDhQ3g5kT34X9th0wBbd0LFXpivr111/feeedF1544dVXX/3ll1+Um44ePTpz5syIiIidO3caadcqKyuLjIx86KGHZs+ezVpycnJu3rx5914cQ4cO3bFjh7q15hg9evTWrVvVrXcrKCigMQwODh40aJB6m8JXX30VGBg4cuTIrKws9TaoaSo9TwGg2mCeGiTsQHEzGOI76OOWjqUqXVGNGjWaMGFCVFQURcn69etv3ryZtVOUd3FxoZi+dOlSd3f3FStWOG7n+u6775o3b56Wlnbnzh3WEh4evmHDhrt24nnkkUc2bdqkbq05lixZcuDAAXXr3aKjo7t3756enn758mX1NoXS0tK8vLyBAwfS5yv1NqhpKj1PAaDaYJ4aJOxAcTMY4jvo45aOpSpdURcvXpSX58yZExYWxpaHDBkyefJktkxJumnTpoWFhQ7auVavXt2jRw959cqVK126dKHEn5WVRZGUNRYXFx85cuTo0aNyxJfuju+0A+1fVFQk2bJsYmJifHy88hY+vYSCgoJr167FxcWdO3dObncgNzeXnVCynZPOX15ezlbpw0ZMTExSUpKyPw6um5+fv3//fvnlMLRKm5S7qbpHkf2FF1547rnn6NLXr19njdyhYBYsWECfslSNUONUep4CQLXBPDVI2IHiZjDEd9DHLR1LmVJRS5Ys6dy5s2RLqw0bNty1axdrp8xap06d2NhYe+3yGVQ++uijXr16yatvvPGGm5ubv79/eHg4+wxw+PBhX19fCuuhoaEdO3Y8fvw421OO7xRzH3vssSlTppSUlKSmpgYEBAQHB/ft27d169Z79uyRd546dSodTtdycXFZtWpVxQXt8vHx2bdvH1umAE1/WJTCy8rKxo0b5+3t/cc//pE+xsjPtDi4Lr0K2r9bt27bt29njQz1ZM2aNfJu2u7Nnj27tQ0NxYcffijZHwrmrbfeor4pW6AmMmWeAoClME8NEnaguBnMnPgu7PP+YApu6Viq6hV169atTp06LViwgJazs7Op/0lJSfLW5s2bf/bZZ/ba5VWVpUuX9u/fX9mifHiGPgyEhITMnTuXrU6fPp1yMLsLzuL7mTNnAgMDWZeovXfv3myZ0EcIDw8Pdoebdqa0fePGDVretm1bkyZNKIiz3ezhxvdjx441atRIvmvOboo7vi5l+itXrrBNSqr4zu1eZGTktGnT2D4OhoJ59913n3zySXkVaqiqz1MAsBrmqUHCDhQ3g5kT36F245aOyEpKSkaNGtWnT5/i4mJaPXv2LPU/OTlZ3sHb23vt2rX22uVVWXp6+ocffujn5/fRRx8p25XxPTU1lc4mP3ZCYZ1WMzMzJVvknTlzJp1cDsF0QtoaFxd3pEKzZs0OHTrEdpaHmlI47Xb+/Hm2ag83vtOCs7PzkiVL0tLS5D0dX/e9996T91RSxXdu95Tx3cFQMEePHm3RosXbb7998OBBuREAAABUuBkM8R30cUtHWKWlpRMnTqRgfe3aNdbCUqbyg7WLi8u2bdvstcursoSEhOeff57ie0xMjLJdGd9jY2Pr168vbyosLKST04GSLfK2a9cuJCTk6tWrbCsF6Lp16w6+G8uyygfl2UlOnTpVcVY+bnyn5b179w4ZMsTNza1Dhw5ffvmlZPi6Kqr4zu2eMr47GAomNzeXhm7YsGEO/q0DAAAAuBkM8R30cUtHTGVlZZMmTaKIqXoIxNfXd+XKlWw5OTmZXg67J22vneu1117705/+pGzp0aPH+vXr2fLp06fp8OzsbLaakpIir1J/Nm7cOHny5LCwsEuXLlFLRkaGk53b6vbysQOBgYG7d+9my4mJiXJ8Z4qLi6Ojoxs0aHDjxg2D11W51/juYCgYqqWePXvKqwAAAMDFzWCI76CPWzoCKi8vp4js7+9PQfySjfwlhvPnzw8KCrp69SrL948++qjjdq4PP/ywd+/eypZRo0bNmTOHPfxNVw8PD6cISwulpaUTJkzo168f241FXmqfMWNGaGhobm4uNQ4YMGD8+PG3bt1ix8bExNBR8s7sQFV8//bbb19//XW2rDRmzJgpU6ZItqT+9NNPs/hOSf3kyZNsh59//rlevXrse2aMXFflXuO7g6FgFi1ahB9dBQAA0MXNYObEd2Gf9wdTcEvHUpWrKIqnTndr2LAh20RBk6K2q6trixYtQkJC5EBsr53r448/Vn7zjGTrZ3BwsLOzc58+fSTb/fsuXbq0adOmZcuWlF9Pnz7NdlNG3pdffjkgICArKysnJ2f48OGNGzemzw/u7u5hYWHsCxbt5WOycOFC5TdXyo4dO+bl5eXt7e3p6bl48WInW3ynvjVv3rxt27b0gYEW5Kf2jVxX5V7ju2R/KJi33nrrqaeeUrZATVS5eQoA1Qnz1CBhB4qbwcyJ78J+2w6Ygls6ltKtKIqnmzdvvnDhgnqDQ9nZ2WlpacqvQHHcrrJt2zZKw+xetQOUj9n9dSPoI0dKSor8TLxjAwcOtPfbT0tKSuglsC+EkVFXz549e/LkSe2X2d/TdSvN3lBMnjx5xowZ6laoaXTnKQDcd5inBgk7UNwMhvgO+rilYykHFZWQkBAREREUFFT9X1py/fr1zp07e3l5zZ8/X72tWtCw6H6JpOC++eYb+rNr3rx5fHy8ehvUNA7mKQAIAvPUIGEHipvBEN9BH7d0LKWtqPz8/E8++SQ8PJzSc9u2bX/66SfVDtWGPVWvbgVjbt68mZ2drfsvGFAjaOcpAIgG89QgYQeKm8EQ30Eft3Qspawodrvdz8+vQ4cOnp6etHAfszsAyPDODyA+zFODhB0obgYzJ74L+7w/mIJbOpaiipJvt3fq1MnHx8fTBtkdQBx45wcQH+apQcIOFDeDmRPfoXbjlo6lYmJiAgICWGSXeXl5UR/o8zEts0/JWMYylu/vMgAAWIqbwRDfQR+3dKyWn5+/evXq3r17h4SEsMdmiK+vb2xsrHpXAAAAgNqIm8EQ30Eft3SqTUJCwowZM9q3b//QQw8hwQMAAMCDg5vBEN9BH7d0qpl8M97Ly8vHxwcJHgAAAGo9bgYzJ74L+7w/mIJbOpZyUFHsZvx9+d53AFByME8BQBCYpwYJO1DcDGZOfMfPMNVu3NKxlG5FVe63rgKAiXTnKQDcd5inBgk7UNwMhvgO+rilYylUFID4ME8BxId5apCwA8XNYIjvoI+VzujRo/+nuowZM0bdBACCwTwFEB/mqUHCDhSlL8R3qIz/scV3AAAAAKh+lsR3YZ/3B1NkZmb+v+r10ksvqZsAQDCYpwDiwzw1SPCBoiSmDGbmxHcAAAAAAKgGiO8AAAAAADUG4jsAAAAAQI2B+A4AAAAAUGOYE9/xo6tgLlQUgPgwTwHEh3lqUM0aKHPiO744EsyFigIQH+YpgPgwTw2qWQOF+A4iQkUBiA/zFEB8mKcG1ayBQnwHEaGiAMSHeQogPsxTg2rWQCG+g4hQUQDiwzwFEB/mqUE1a6DMie8163l/EB8qCkB8mKcA4sM8NahmDZQ58R0AAAAAAKoB4jsAAAAAQI2B+A4AAAAAUGMgvgMAAAAA1BjmxPea9bw/mO769evLl69YsuTdqKilpvz32mvztY2V+2/x4neXLVtOPVR3GuCBYfoMZf+ZOE+V/7399tIff/xR/RoAag6acfT3Dv3toy3v6v/Ponlaif9oQN5/X/+v4x9/PEBvAtrDrf7vfg0UvTPT+7PusKggvoMJVqz4n5SUrMzMa2L+99v/b+9OgKOo0z6OBwgQINyncohh10KiFCy4YDx4X3F5PSGgXFkRAipEvF2IqLlIIAkMICAxHhgIoEQ51AVBLhG5ERIITDQhIUwQXVbWwgMpNPI+m963367unk5mMoHpzPdTT1GTfx8zaebp/vUcnWOu9HQ7XRAK8C0/71BjLV/+/sqVOfpfA7AJye5y3DE+sSmn0+VwzNVvL421a9euWLHKuGDtLqezTBK8fltYMonvBQUFpaWl2pGzZ88eOHDg999/1w4Cqhkz0oxPR7+qhIQZ+gcNBAz/71BjpaTQs7CrxMSZxqc0pdT06an67aWRnj7LuEggVEpKmn5bWDKJ7/369ZswYYJ2ZNmyZUFBQb/88ot2EFDJ0874XPSrio9P0T9oIGD4f4caKzU1Xf9rADaRkDDD+JSmlEpKmqnfXhppaQEa363PaoyI7/AB/w8HxHcEMv/vUGMR32FfxHeLIr6bVo3H9/z8/KioqN69e/fv3z86Ovqbb75RZ1u3bt29997bq1ev4cOHHzx4UBlMSUlZsWLFokWLIiIixo8fr86M2sT/wwHxHYHM/zvUWMR32Bfx3aKI76ZVs/H9woUL7dq1i4mJ2bZt2/r16+Pi4goLC5V53n777dDQ0LS0tC1btiQkJDRq1Ojw4cMyPnDgwI4dOw4ZMiQnJ0cW0a4WtYb/hwPiOwKZ/3eosYjvsC/iu0UR302rZuN7UVGR3Dh16pR2qvj111/btm27YMECdWTcuHGjR4++VBHfe/Towddeazf/DwfEdwQy/+9QYxHfYV/Ed4sivptWzcZ3iek33HBD165dp0yZsnnz5osXLyoz5OfnywyTJk1KSEiIj4+Pi4sbNGhQz549L1XE95iYGO3aUPv4fzggviOQ+X+HGov4DvsivlsU8d20fBDf77zzzpEjR2pHFi1a1KBBg/Lycrn9448/ZmZmRkZGNmvWLCwsrLi4WAb37dsn8V0yfapGRkbGpYr4Hhsbq10bah/rcFBcfOb99z9+5ZXXs7NX7d9foI4nJKTOm5dpvF0TRXxHILPo0KKib1eu/Ejac8mSnD17jhpnuFJFfId9Wcf3kye/X7fu0z178o2T/LN27z4iD1hq48adspeQx+9uhvXrt+/cmVdS8p1xJWp5Hd+1DyM/v9Q4Q1VKdnfR0ROHDh2xa9fhaoYQ324WH8T3iRMnhoeHa0cmT57cvXt37cilihwvgxLZL1VcGL5u3bqrVq3SzXOJ+B4YLMLB4sXvtm/fITQ0tHfvvt279wgOrn/vvZHKs3zQoHvGjn1UmW3w4AcefXSycfEq1sMPPzJtWqJxXC3iOwKZuw5du3aTtGfr1m379u3ftWuY7Mat++hyFvEd9mUd31esWBsUFNSt23XGSVeqrI+hDz44Ojg4uGXLVs2bt5C9RNOmzaKixubmFhlnkKpXr16bNu0yM7ON61HK6/iu3ktoaFPZgLfe+l8HD35lnM2iJGdLCHn66akzZ87NzT2uDR7aQFLF8u1m8UF8P3DgQJ06ddLT0y9cuFBeXr5x40bJXnPn/vvPQZWWlsqPysvwEtm7deuWlvaf68yPGTMmLCxM+bqqcDqdmzdvvkR8DwzuwsF7762Xp+wjjzxeVPStMrJ/f0Fk5HDlHNSLbnFXd9zxP+PHTzKOq0V8RyBz16FhYX+Q0+mSkn8qP+7de2zDhs+Ns12RIr7Dvqzju6TGm2++VQ6Oa9d+Ypx6Rcr6GCoxtH//W5Tbx4//Y/nyNddd171Tpy6HD5cYZ5DDfVTU2IYNQwoL/3Pc11V14rt6L1u37m3XroPsvoyzWVRSUnr37j2M4y6vAolvN4sP4rt47bXXWrZsKScTDRs2rF+/fkxMjPIx9yNHjrRv375BgwadO3eWSZGRkT///LOyyE8//RQdHS3nGa1atWrSpIn8m5mZeYn4HhjchYPevfuGh/c0vqOklLZbXn45xeFYpE5asiRH9ibh4TdKc3788Wfq+JQpLy9c+FZa2it9+vy5X78IZZEZM+a0b99Bgsj99w+TOnDgS+N9Ed8RyEw7VA4nQUFB8+e/YZyklEUbLljwZkqKo0+ffiNHPpSVtTI6eqJ2wVmzFj733DSPVqJdXCniO+zLIr4fPXpSMlx29qoBAwaOHv2wburSpe/feedd118fHhFxuxzaLAal5AgopwE9etwwbNioHTsOqeMxMc9IV6o/JiWlyUFTue3dMVQbQ5U6ePCrxo0bP/74s6Yz5OSsk33LZ58d1K1HKZ/Ed6mJE59s27a9y83OxLhxEhJSZRs2b95CfkflXEUbPHTx3d2OS1u+3Sy+ie+XKi4mU1BQIHldcrluUllZmYyfPXtWNy5++OEHmVRaWvrbb7/pp6H2Mg0HcgJap06dxESTSUppu0V7W9pJzgCnTUt8990Pn332hZCQkE8+2aVMuuWWAVdf3XHw4AcWL343NjZezjBlnnXrPr3xxl7SaZmZS6WczlPG+yK+I5CZdqhU587X9OrV58MPt5w4cVY3yboNO3S4Sno2IyNryZL3tm//Qo5JmzbtVqaWlv7rqquuliOlRyvR3buL+A47s4jvkjLbtesgHScxOjQ09KuvvlEnpacvCA6u/8QTz7/zzgcyVVK4u0FXRSiXhpJGkzOBv/zl7latWh85ckKZJJn1pZeS1dVKWh01aoxy27tjqDGnKquVdGuc4dChwsjI4bJvUd/W05Wv4vuIEX/t2jXMZbYzMd04H3yweejQEV26dJXfUcZdXoUQi8ejlNebxWfxHag603CwYcPnclB/++3/fw1AV6adU1LyXevWbZKS0tXZhg+PGjLkQeW2dKnsZdSX8wcMGKgsZf3Gn4v4jsBm2qFScjy75pprpU8bN24s3bRgwZvKeKVt+Mc/dte+q9anz5/Vj5AuX75G0kZu7nFPV6Ir4jvsyyK+9+zZe+LEJ10Vb381bdpM/bqkpLoWLVqqb1tZDFaMf9e8eQs1o8uPHTt2fvrpqcqP1vHdi2OoaU6dPPm5li1bqTMEacj5yfr1243rUao68V2S8erVG3Ny1k2dGhccHPzMM7Euw87EYuO88EKC/PrqCr0IIdry7WYhvuMKMA0HcrYqz1eLL2qYds7mzXtkqYceGi+nvNKZ0nK3337H9deHK7NJl2p3MWPGTLj77vtdle16XMR3BDbTDlVKjnl///u2hIRUaS5pPSVYVNqG0nralaSmzmvTpp3ynZbIyOHSzl6sRFfEd9iXu/iuNIX6VlVU1Fg1/8mgTNK9yms6KLVjxyEZl7WpIyNHPjRw4F3Kbev47sUx1DSnTpr0lHS9OkPv3n137z4itWHD57JaScDurmRVnfhev36DDh2u6tSpy0039U9KSlP2ObqdicXGqUp8t95xacu3m4X4jivANBwUFHxdr1692Nh44ySlTDvno4+2Bv37bwg8JW2mlvppP+lS9a1DKVlECQrWux4X8R2BzbRDjRUdPSk4uL4cET1qQ6ljx1wNG4YsWZLjdJaFhIS8+eYKl4e9bCziO+zLXXyfMCFGDot9+/ZX6tpru9WpU+fzz3NlkpxFS79oP8LubtBVcQUVGd+5M08dGTfusYiI25Tbuvh+331DtfHdi2OoaU4dMGBgnz79TGc4efL7li1bKS+NG6s68d34MFyGX8pi41QlvlvvuLRl+ni83iyXNb4XFhbOmzc/OTlV/jOkZs+el59fwN9XDUDuwoHsETp27HT8+D+0g+qPpp1z5MiJunXrunvN3t2uR/7VfXlOV8R3BDJ3Haqr9PQFEibkxNujNlRq8OAH7rlniKyhdes2yoc7vViJtojvsC/T+C59Id0xcuRDc+ZkqNWpU5ennpoiU/PzS6VfMjKytIuYDko5naekVd966x11pF+/CPWLsBIZn3zyb+qknj17VxrfrY+hxpy6fv12OQ9RvuJinKG09F8tWrSMiXnauCpXzcd3i41TlfhuvePSlvHxVGezXKb4fvr06fj4xIyMxU5nmXrfcvvVVxfHxsaVlLj0C6BWcxcOtm//omnTZnfcMWjbtn2uio+UrVixNjy8p/HCkdrbw4aN6tKlq/p2oSz7zjsfKLfd7XqioyfJ+e6hQ4WSPEw/TUt8RyAz7dDi4jNDh45Yu3aTcl3XrVv3Xndd9z/96SZlatXbUKns7FUNGjQMD79R+xqepyvRFvEd9mUa319/fZnkQu3fLpR65pnYq6/uKMHOVfHBs2uuuXbLlr2uisPl6tUb3Q1KDRnyYI8eNygXPp8//w0JrB99tFWZ9NhjT4SF/eHw4RI5GsoZtQTKSuO79TFUYmivXn127Dgkx/Q1azY+//yLoaFNb775VvXFOHUGKYmwUVHj5DdVH6quajq+u9xvnKrEd5fljktbvt0slyO+5+XlxcUlya7fePeuikNCbGz8rl379Yuh9jINB0rJTkdaq+IipCGyE2nbtr36tyHcdc6XX54eMeKvwcHBcp7auHFj+Tc1dZ4yyd2uZ+fOvL59+zdq1CgoKOjTT/drH4BSxHcEMtMOlSggp9YhISHSnkrv3Hbbf+/efUSZWvU2VOrEibPt23eQlWivHO/pSrRFfId9mcb3gQPvioi4XTeoXLhp2bLVroqXje+7b6hkzVatWtev30D5uLbpoFRubpFkWWneZs2aS/+qr/i6Ki5yIuFV+q5Jkyb33DP4rrvuqzS+Wx9DH/y/r2DKQVweRkTEbTNnzlVehtPNICTCSmZ9443lupWodRniu7uNU8X4brHj0pZvN0uNx/fTp08nJEw33rGuJMEfP85r8IHCNBxoKz+/dNOm3V98ob+arEXJPksW2bMn33hJOy+K+I5AZtGhxcVn5Mi9dete7VupavmkDb1bCfEd9mUa36tYhw+XfPLJLt3fEzUdlNq3zynNpb36pFInT34vfb137zHduD+U1/Hd03K3capY3u24vK4aj+9JSUnuLlqpLTkkTJ36cnk5H4QPCBbhwE+K+I5A5v8daiziO+yrOvG91tdli+/2qpqN74WFhVlZy4z3aloZGVm5uUf1q0Bt5P/hgPiOQOb/HWos4jvsi/huUcR306rZ+J6RkVFUdNp4r6bldJbNnv2KfhWojfw/HBDfEcj8v0ONRXyHfRHfLYr4blo1G98dDkdZmf4uLUqewfpVoDby/3BAfEcg8/8ONRbxHfZFfLco4rtp1Xh8N96lRcXHE98Dgv+HA+I7Apn/d6ixiO+wL+K7RRHfTavG4/vXX58z3qu7Sky0+k9CreH/4YD4jkDm/x1qLOI77Iv4blHEd9Oq2fiekZFRUvKt8V5Ny+ksmzNnvn4VqI38PxwQ3xHI/L9DjUV8h30R3y2K+G5aNRvfCwsLs7NXGO/VtDIyso4eLdCvArWR/4cDvoaBQOb/HWosOYrrfw3AJhITZxqf0pRS1jk1JSVAN11ystVmMfIsvovp06eXlVV+Bfvi4jPTpsXpF0YtNWfOXKfTZXwa+EkdO+ZKS3PoHzQQMPy8Q42Vnf3emjVr9L8GYBPp6Q457hif2JRsltmz5+i3l8bKlTnLlr1nXLB2l2wWh2OufltY8ji+nz59OiUlpdJPwE+blnDq1Nf6hVFLnTt3ThoyOTktKWmmv5Wc6KelzZZHqH/QQMDw5w411vTpM7dv36H/HQD7kI6TBJ+cnGp8egdyyS5o1ixHpYfjzz7bITsB4+K1tWSzyP650s2i43F8F3l5ecnJKS6X+WvwxcVnXnop4dChXP1iAAAAAKrHm/h+qeI1+OTk5KysbO1fcXI6yzIzs+LjE2WqfgEAAAAA1eZlfFcUFRW9+uqrs2bNHjt2XHr6rIULF8qIfiYAAAAAPlKt+K5yOPheIAAAAFDjiO8AAACAbRDfAQAAANsgvgMAAAC2QXwHAAAAbIP4DgAAANgG8R0AAACwjUrie05OjqMKhg0bph8yI2vT3wEAAACAKqskvleRg1ffAQAAgJpHfAcAAABsg/gOAAAA2AbxHQAAALAN4jsAAABgG8R3AAAAwDaI7wAAAIBtEN8BAAAA2yC+AwAAALZBfAcAAABsg/gOAAAA2AbxHQAAALAN4jsAAABgG8R3AAAAwDaI7wAAAIBtEN8BAAAA2yC+AwAAALZBfAcAAABswwfx/fz586NGjZJ/9RMAAAAA+FR143t5eXlcXNyxY8fkX7mtnwwAAADAd6ob3x0OR2FhodyQf/kIDQAAAFCjqhXfly5dumvXLvVHuS0jmukAAAAAfMn7+L5x48bVq1frBmVExnWDAAAAAHzCy/iel5eXkZGhH60g4zJVPwoAAACg2ryJ72VlZcnJyfpRDZkq8+hHAQAAAFSPx/H93LlzL7744sWLF/UTNGSqzCNz6icAAAAAqAbP4nvVc3lVUj4AAAAAj3gW3z36VEyln7EBAAAA4BEP4rsX30m1+IYrAAAAAE9VNb57fUVI0+tLAgAAAPBCleJ7Nf8ek+6vOwEAAADwTuXxvbCw0OFw6Ec9JGuQ9ehHAQAAAHiikvh+5syZuLi48vJy/QQPyRpkPbI2/QQAAAAAVVZJfM/Kyjp//rx+1CuyHlmbfhQAAABAlVUS3wEAAAD4D+I7AAAAYBvEdwAAAMA2iO8AAACAbRDfAQAAANv4X19vdVgKZ/w2AAAAAElFTkSuQmCC;" vertex="1" parent="1">
          <mxGeometry x="120" y="50" width="1002" height="632" as="geometry" />
        </mxCell>
      </root>
    </mxGraphModel>
  </diagram>
</mxfile>
